<mxfile host="app.diagrams.net" agent="Mozilla/5.0 (Windows NT 10.0; Win64; x64) AppleWebKit/537.36 (KHTML, like Gecko) Chrome/135.0.0.0 Safari/537.36 Edg/135.0.0.0" version="26.2.12">
  <diagram name="Page-1" id="7e0a89b8-554c-2b80-1dc8-d5c74ca68de4">
    <mxGraphModel dx="541" dy="599" grid="1" gridSize="1" guides="0" tooltips="1" connect="1" arrows="1" fold="1" page="1" pageScale="1" pageWidth="1100" pageHeight="850" background="none" math="0" shadow="0">
      <root>
        <mxCell id="0" />
        <mxCell id="1" parent="0" />
        <mxCell id="IWLJOj-bWdNwNhBtovuA-1" value="3K&lt;b&gt;Î©&lt;/b&gt;" style="verticalLabelPosition=bottom;shadow=0;dashed=0;align=center;html=1;verticalAlign=top;strokeWidth=1;shape=mxgraph.electrical.resistors.resistor_2;rounded=1;comic=0;labelBackgroundColor=none;fontFamily=Verdana;fontSize=12" parent="1" vertex="1">
          <mxGeometry x="277" y="394" width="58" height="10" as="geometry" />
        </mxCell>
        <mxCell id="IWLJOj-bWdNwNhBtovuA-3" value="" style="shape=table;startSize=0;container=1;collapsible=0;childLayout=tableLayout;fontSize=16;" parent="1" vertex="1">
          <mxGeometry x="72" y="140" width="168" height="170" as="geometry" />
        </mxCell>
        <mxCell id="IWLJOj-bWdNwNhBtovuA-28" style="shape=tableRow;horizontal=0;startSize=0;swimlaneHead=0;swimlaneBody=0;strokeColor=inherit;top=0;left=0;bottom=0;right=0;collapsible=0;dropTarget=0;fillColor=none;points=[[0,0.5],[1,0.5]];portConstraint=eastwest;fontSize=16;" parent="IWLJOj-bWdNwNhBtovuA-3" vertex="1">
          <mxGeometry width="168" height="43" as="geometry" />
        </mxCell>
        <mxCell id="IWLJOj-bWdNwNhBtovuA-29" value="1" style="shape=partialRectangle;html=1;whiteSpace=wrap;connectable=0;strokeColor=inherit;overflow=hidden;fillColor=none;top=0;left=0;bottom=0;right=0;pointerEvents=1;fontSize=16;" parent="IWLJOj-bWdNwNhBtovuA-28" vertex="1">
          <mxGeometry width="42" height="43" as="geometry">
            <mxRectangle width="42" height="43" as="alternateBounds" />
          </mxGeometry>
        </mxCell>
        <mxCell id="IWLJOj-bWdNwNhBtovuA-30" value="2" style="shape=partialRectangle;html=1;whiteSpace=wrap;connectable=0;strokeColor=inherit;overflow=hidden;fillColor=none;top=0;left=0;bottom=0;right=0;pointerEvents=1;fontSize=16;" parent="IWLJOj-bWdNwNhBtovuA-28" vertex="1">
          <mxGeometry x="42" width="42" height="43" as="geometry">
            <mxRectangle width="42" height="43" as="alternateBounds" />
          </mxGeometry>
        </mxCell>
        <mxCell id="IWLJOj-bWdNwNhBtovuA-31" value="3" style="shape=partialRectangle;html=1;whiteSpace=wrap;connectable=0;strokeColor=inherit;overflow=hidden;fillColor=none;top=0;left=0;bottom=0;right=0;pointerEvents=1;fontSize=16;" parent="IWLJOj-bWdNwNhBtovuA-28" vertex="1">
          <mxGeometry x="84" width="42" height="43" as="geometry">
            <mxRectangle width="42" height="43" as="alternateBounds" />
          </mxGeometry>
        </mxCell>
        <mxCell id="IWLJOj-bWdNwNhBtovuA-32" value="A" style="shape=partialRectangle;html=1;whiteSpace=wrap;connectable=0;strokeColor=inherit;overflow=hidden;fillColor=none;top=0;left=0;bottom=0;right=0;pointerEvents=1;fontSize=16;" parent="IWLJOj-bWdNwNhBtovuA-28" vertex="1">
          <mxGeometry x="126" width="42" height="43" as="geometry">
            <mxRectangle width="42" height="43" as="alternateBounds" />
          </mxGeometry>
        </mxCell>
        <mxCell id="IWLJOj-bWdNwNhBtovuA-4" value="" style="shape=tableRow;horizontal=0;startSize=0;swimlaneHead=0;swimlaneBody=0;strokeColor=inherit;top=0;left=0;bottom=0;right=0;collapsible=0;dropTarget=0;fillColor=none;points=[[0,0.5],[1,0.5]];portConstraint=eastwest;fontSize=16;" parent="IWLJOj-bWdNwNhBtovuA-3" vertex="1">
          <mxGeometry y="43" width="168" height="42" as="geometry" />
        </mxCell>
        <mxCell id="IWLJOj-bWdNwNhBtovuA-5" value="4" style="shape=partialRectangle;html=1;whiteSpace=wrap;connectable=0;strokeColor=inherit;overflow=hidden;fillColor=none;top=0;left=0;bottom=0;right=0;pointerEvents=1;fontSize=16;" parent="IWLJOj-bWdNwNhBtovuA-4" vertex="1">
          <mxGeometry width="42" height="42" as="geometry">
            <mxRectangle width="42" height="42" as="alternateBounds" />
          </mxGeometry>
        </mxCell>
        <mxCell id="IWLJOj-bWdNwNhBtovuA-6" value="5" style="shape=partialRectangle;html=1;whiteSpace=wrap;connectable=0;strokeColor=inherit;overflow=hidden;fillColor=none;top=0;left=0;bottom=0;right=0;pointerEvents=1;fontSize=16;" parent="IWLJOj-bWdNwNhBtovuA-4" vertex="1">
          <mxGeometry x="42" width="42" height="42" as="geometry">
            <mxRectangle width="42" height="42" as="alternateBounds" />
          </mxGeometry>
        </mxCell>
        <mxCell id="IWLJOj-bWdNwNhBtovuA-7" value="6" style="shape=partialRectangle;html=1;whiteSpace=wrap;connectable=0;strokeColor=inherit;overflow=hidden;fillColor=none;top=0;left=0;bottom=0;right=0;pointerEvents=1;fontSize=16;" parent="IWLJOj-bWdNwNhBtovuA-4" vertex="1">
          <mxGeometry x="84" width="42" height="42" as="geometry">
            <mxRectangle width="42" height="42" as="alternateBounds" />
          </mxGeometry>
        </mxCell>
        <mxCell id="IWLJOj-bWdNwNhBtovuA-33" value="B" style="shape=partialRectangle;html=1;whiteSpace=wrap;connectable=0;strokeColor=inherit;overflow=hidden;fillColor=none;top=0;left=0;bottom=0;right=0;pointerEvents=1;fontSize=16;" parent="IWLJOj-bWdNwNhBtovuA-4" vertex="1">
          <mxGeometry x="126" width="42" height="42" as="geometry">
            <mxRectangle width="42" height="42" as="alternateBounds" />
          </mxGeometry>
        </mxCell>
        <mxCell id="IWLJOj-bWdNwNhBtovuA-8" value="" style="shape=tableRow;horizontal=0;startSize=0;swimlaneHead=0;swimlaneBody=0;strokeColor=inherit;top=0;left=0;bottom=0;right=0;collapsible=0;dropTarget=0;fillColor=none;points=[[0,0.5],[1,0.5]];portConstraint=eastwest;fontSize=16;" parent="IWLJOj-bWdNwNhBtovuA-3" vertex="1">
          <mxGeometry y="85" width="168" height="43" as="geometry" />
        </mxCell>
        <mxCell id="IWLJOj-bWdNwNhBtovuA-9" value="7" style="shape=partialRectangle;html=1;whiteSpace=wrap;connectable=0;strokeColor=inherit;overflow=hidden;fillColor=none;top=0;left=0;bottom=0;right=0;pointerEvents=1;fontSize=16;" parent="IWLJOj-bWdNwNhBtovuA-8" vertex="1">
          <mxGeometry width="42" height="43" as="geometry">
            <mxRectangle width="42" height="43" as="alternateBounds" />
          </mxGeometry>
        </mxCell>
        <mxCell id="IWLJOj-bWdNwNhBtovuA-10" value="8" style="shape=partialRectangle;html=1;whiteSpace=wrap;connectable=0;strokeColor=inherit;overflow=hidden;fillColor=none;top=0;left=0;bottom=0;right=0;pointerEvents=1;fontSize=16;" parent="IWLJOj-bWdNwNhBtovuA-8" vertex="1">
          <mxGeometry x="42" width="42" height="43" as="geometry">
            <mxRectangle width="42" height="43" as="alternateBounds" />
          </mxGeometry>
        </mxCell>
        <mxCell id="IWLJOj-bWdNwNhBtovuA-11" value="9" style="shape=partialRectangle;html=1;whiteSpace=wrap;connectable=0;strokeColor=inherit;overflow=hidden;fillColor=none;top=0;left=0;bottom=0;right=0;pointerEvents=1;fontSize=16;" parent="IWLJOj-bWdNwNhBtovuA-8" vertex="1">
          <mxGeometry x="84" width="42" height="43" as="geometry">
            <mxRectangle width="42" height="43" as="alternateBounds" />
          </mxGeometry>
        </mxCell>
        <mxCell id="IWLJOj-bWdNwNhBtovuA-34" value="C" style="shape=partialRectangle;html=1;whiteSpace=wrap;connectable=0;strokeColor=inherit;overflow=hidden;fillColor=none;top=0;left=0;bottom=0;right=0;pointerEvents=1;fontSize=16;" parent="IWLJOj-bWdNwNhBtovuA-8" vertex="1">
          <mxGeometry x="126" width="42" height="43" as="geometry">
            <mxRectangle width="42" height="43" as="alternateBounds" />
          </mxGeometry>
        </mxCell>
        <mxCell id="IWLJOj-bWdNwNhBtovuA-12" value="" style="shape=tableRow;horizontal=0;startSize=0;swimlaneHead=0;swimlaneBody=0;strokeColor=inherit;top=0;left=0;bottom=0;right=0;collapsible=0;dropTarget=0;fillColor=none;points=[[0,0.5],[1,0.5]];portConstraint=eastwest;fontSize=16;" parent="IWLJOj-bWdNwNhBtovuA-3" vertex="1">
          <mxGeometry y="128" width="168" height="42" as="geometry" />
        </mxCell>
        <mxCell id="IWLJOj-bWdNwNhBtovuA-13" value="*" style="shape=partialRectangle;html=1;whiteSpace=wrap;connectable=0;strokeColor=inherit;overflow=hidden;fillColor=none;top=0;left=0;bottom=0;right=0;pointerEvents=1;fontSize=16;" parent="IWLJOj-bWdNwNhBtovuA-12" vertex="1">
          <mxGeometry width="42" height="42" as="geometry">
            <mxRectangle width="42" height="42" as="alternateBounds" />
          </mxGeometry>
        </mxCell>
        <mxCell id="IWLJOj-bWdNwNhBtovuA-14" value="0" style="shape=partialRectangle;html=1;whiteSpace=wrap;connectable=0;strokeColor=inherit;overflow=hidden;fillColor=none;top=0;left=0;bottom=0;right=0;pointerEvents=1;fontSize=16;" parent="IWLJOj-bWdNwNhBtovuA-12" vertex="1">
          <mxGeometry x="42" width="42" height="42" as="geometry">
            <mxRectangle width="42" height="42" as="alternateBounds" />
          </mxGeometry>
        </mxCell>
        <mxCell id="IWLJOj-bWdNwNhBtovuA-15" value="#" style="shape=partialRectangle;html=1;whiteSpace=wrap;connectable=0;strokeColor=inherit;overflow=hidden;fillColor=none;top=0;left=0;bottom=0;right=0;pointerEvents=1;fontSize=16;" parent="IWLJOj-bWdNwNhBtovuA-12" vertex="1">
          <mxGeometry x="84" width="42" height="42" as="geometry">
            <mxRectangle width="42" height="42" as="alternateBounds" />
          </mxGeometry>
        </mxCell>
        <mxCell id="IWLJOj-bWdNwNhBtovuA-35" value="D" style="shape=partialRectangle;html=1;whiteSpace=wrap;connectable=0;strokeColor=inherit;overflow=hidden;fillColor=none;top=0;left=0;bottom=0;right=0;pointerEvents=1;fontSize=16;" parent="IWLJOj-bWdNwNhBtovuA-12" vertex="1">
          <mxGeometry x="126" width="42" height="42" as="geometry">
            <mxRectangle width="42" height="42" as="alternateBounds" />
          </mxGeometry>
        </mxCell>
        <mxCell id="IWLJOj-bWdNwNhBtovuA-36" value="" style="rounded=0;whiteSpace=wrap;html=1;" parent="1" vertex="1">
          <mxGeometry x="380" y="100" width="230" height="550" as="geometry" />
        </mxCell>
        <mxCell id="IWLJOj-bWdNwNhBtovuA-37" value="FR2355" style="text;html=1;align=center;verticalAlign=middle;resizable=0;points=[];autosize=1;strokeColor=none;fillColor=none;" parent="1" vertex="1">
          <mxGeometry x="460" y="110" width="70" height="30" as="geometry" />
        </mxCell>
        <mxCell id="IWLJOj-bWdNwNhBtovuA-38" value="P3.6 Column 3" style="text;html=1;align=center;verticalAlign=middle;resizable=0;points=[];autosize=1;strokeColor=none;fillColor=none;" parent="1" vertex="1">
          <mxGeometry x="381" y="162" width="98" height="27" as="geometry" />
        </mxCell>
        <mxCell id="IWLJOj-bWdNwNhBtovuA-39" value="P3.7 Column 4" style="text;html=1;align=center;verticalAlign=middle;resizable=0;points=[];autosize=1;strokeColor=none;fillColor=none;" parent="1" vertex="1">
          <mxGeometry x="380" y="140" width="100" height="30" as="geometry" />
        </mxCell>
        <mxCell id="IWLJOj-bWdNwNhBtovuA-40" value="P3.5 Column 2" style="text;html=1;align=center;verticalAlign=middle;resizable=0;points=[];autosize=1;strokeColor=none;fillColor=none;" parent="1" vertex="1">
          <mxGeometry x="381" y="182" width="98" height="27" as="geometry" />
        </mxCell>
        <mxCell id="IWLJOj-bWdNwNhBtovuA-41" value="P3.4 Column 1" style="text;html=1;align=center;verticalAlign=middle;resizable=0;points=[];autosize=1;strokeColor=none;fillColor=none;" parent="1" vertex="1">
          <mxGeometry x="381" y="202" width="98" height="27" as="geometry" />
        </mxCell>
        <mxCell id="IWLJOj-bWdNwNhBtovuA-42" value="P3.3 Row 4" style="text;html=1;align=center;verticalAlign=middle;resizable=0;points=[];autosize=1;strokeColor=none;fillColor=none;" parent="1" vertex="1">
          <mxGeometry x="390" y="232" width="81" height="27" as="geometry" />
        </mxCell>
        <mxCell id="IWLJOj-bWdNwNhBtovuA-43" value="P3.2 Row 3" style="text;html=1;align=center;verticalAlign=middle;resizable=0;points=[];autosize=1;strokeColor=none;fillColor=none;" parent="1" vertex="1">
          <mxGeometry x="390" y="252" width="81" height="27" as="geometry" />
        </mxCell>
        <mxCell id="IWLJOj-bWdNwNhBtovuA-44" value="P3.1 Row 2" style="text;html=1;align=center;verticalAlign=middle;resizable=0;points=[];autosize=1;strokeColor=none;fillColor=none;" parent="1" vertex="1">
          <mxGeometry x="390" y="272" width="81" height="27" as="geometry" />
        </mxCell>
        <mxCell id="IWLJOj-bWdNwNhBtovuA-45" value="P3.0 Row 1" style="text;html=1;align=center;verticalAlign=middle;resizable=0;points=[];autosize=1;strokeColor=none;fillColor=none;" parent="1" vertex="1">
          <mxGeometry x="390" y="292" width="81" height="27" as="geometry" />
        </mxCell>
        <mxCell id="IWLJOj-bWdNwNhBtovuA-47" value="" style="endArrow=none;html=1;rounded=0;entryX=0.01;entryY=0.5;entryDx=0;entryDy=0;entryPerimeter=0;" parent="1" target="IWLJOj-bWdNwNhBtovuA-39" edge="1">
          <mxGeometry width="50" height="50" relative="1" as="geometry">
            <mxPoint x="240" y="155" as="sourcePoint" />
            <mxPoint x="310" y="150" as="targetPoint" />
          </mxGeometry>
        </mxCell>
        <mxCell id="IWLJOj-bWdNwNhBtovuA-49" value="" style="endArrow=none;html=1;rounded=0;entryX=0.01;entryY=0.5;entryDx=0;entryDy=0;entryPerimeter=0;" parent="1" edge="1">
          <mxGeometry width="50" height="50" relative="1" as="geometry">
            <mxPoint x="239" y="174.5" as="sourcePoint" />
            <mxPoint x="380" y="174.5" as="targetPoint" />
          </mxGeometry>
        </mxCell>
        <mxCell id="IWLJOj-bWdNwNhBtovuA-50" value="" style="endArrow=none;html=1;rounded=0;entryX=0.01;entryY=0.5;entryDx=0;entryDy=0;entryPerimeter=0;" parent="1" edge="1">
          <mxGeometry width="50" height="50" relative="1" as="geometry">
            <mxPoint x="239" y="194.5" as="sourcePoint" />
            <mxPoint x="380" y="194.5" as="targetPoint" />
          </mxGeometry>
        </mxCell>
        <mxCell id="IWLJOj-bWdNwNhBtovuA-51" value="" style="endArrow=none;html=1;rounded=0;entryX=0.01;entryY=0.5;entryDx=0;entryDy=0;entryPerimeter=0;" parent="1" edge="1">
          <mxGeometry width="50" height="50" relative="1" as="geometry">
            <mxPoint x="239" y="214.5" as="sourcePoint" />
            <mxPoint x="380" y="214.5" as="targetPoint" />
          </mxGeometry>
        </mxCell>
        <mxCell id="IWLJOj-bWdNwNhBtovuA-52" value="" style="endArrow=none;html=1;rounded=0;entryX=0.01;entryY=0.5;entryDx=0;entryDy=0;entryPerimeter=0;" parent="1" edge="1">
          <mxGeometry width="50" height="50" relative="1" as="geometry">
            <mxPoint x="240" y="244.5" as="sourcePoint" />
            <mxPoint x="381" y="244.5" as="targetPoint" />
          </mxGeometry>
        </mxCell>
        <mxCell id="IWLJOj-bWdNwNhBtovuA-53" value="" style="endArrow=none;html=1;rounded=0;entryX=0.01;entryY=0.5;entryDx=0;entryDy=0;entryPerimeter=0;" parent="1" edge="1">
          <mxGeometry width="50" height="50" relative="1" as="geometry">
            <mxPoint x="240" y="264.5" as="sourcePoint" />
            <mxPoint x="381" y="264.5" as="targetPoint" />
          </mxGeometry>
        </mxCell>
        <mxCell id="IWLJOj-bWdNwNhBtovuA-54" value="" style="endArrow=none;html=1;rounded=0;entryX=0.01;entryY=0.5;entryDx=0;entryDy=0;entryPerimeter=0;" parent="1" edge="1">
          <mxGeometry width="50" height="50" relative="1" as="geometry">
            <mxPoint x="239" y="284.5" as="sourcePoint" />
            <mxPoint x="380" y="284.5" as="targetPoint" />
          </mxGeometry>
        </mxCell>
        <mxCell id="IWLJOj-bWdNwNhBtovuA-55" value="" style="endArrow=none;html=1;rounded=0;entryX=0.01;entryY=0.5;entryDx=0;entryDy=0;entryPerimeter=0;" parent="1" edge="1">
          <mxGeometry width="50" height="50" relative="1" as="geometry">
            <mxPoint x="239" y="304.5" as="sourcePoint" />
            <mxPoint x="380" y="304.5" as="targetPoint" />
          </mxGeometry>
        </mxCell>
        <mxCell id="IWLJOj-bWdNwNhBtovuA-57" value="" style="rounded=0;whiteSpace=wrap;html=1;" parent="1" vertex="1">
          <mxGeometry x="800" y="100" width="60" height="210" as="geometry" />
        </mxCell>
        <mxCell id="IWLJOj-bWdNwNhBtovuA-56" value="" style="pointerEvents=1;verticalLabelPosition=bottom;shadow=0;dashed=0;align=center;html=1;verticalAlign=top;shape=mxgraph.electrical.resistors.resistor_2;" parent="1" vertex="1">
          <mxGeometry x="800" y="110" width="60" height="20" as="geometry" />
        </mxCell>
        <mxCell id="IWLJOj-bWdNwNhBtovuA-58" value="" style="pointerEvents=1;verticalLabelPosition=bottom;shadow=0;dashed=0;align=center;html=1;verticalAlign=top;shape=mxgraph.electrical.resistors.resistor_2;" parent="1" vertex="1">
          <mxGeometry x="800" y="160" width="60" height="20" as="geometry" />
        </mxCell>
        <mxCell id="IWLJOj-bWdNwNhBtovuA-59" value="" style="pointerEvents=1;verticalLabelPosition=bottom;shadow=0;dashed=0;align=center;html=1;verticalAlign=top;shape=mxgraph.electrical.resistors.resistor_2;" parent="1" vertex="1">
          <mxGeometry x="799" y="134" width="60" height="20" as="geometry" />
        </mxCell>
        <mxCell id="IWLJOj-bWdNwNhBtovuA-60" value="" style="pointerEvents=1;verticalLabelPosition=bottom;shadow=0;dashed=0;align=center;html=1;verticalAlign=top;shape=mxgraph.electrical.resistors.resistor_2;" parent="1" vertex="1">
          <mxGeometry x="800" y="180" width="60" height="20" as="geometry" />
        </mxCell>
        <mxCell id="IWLJOj-bWdNwNhBtovuA-61" value="" style="pointerEvents=1;verticalLabelPosition=bottom;shadow=0;dashed=0;align=center;html=1;verticalAlign=top;shape=mxgraph.electrical.resistors.resistor_2;" parent="1" vertex="1">
          <mxGeometry x="800" y="205" width="60" height="20" as="geometry" />
        </mxCell>
        <mxCell id="IWLJOj-bWdNwNhBtovuA-62" value="" style="pointerEvents=1;verticalLabelPosition=bottom;shadow=0;dashed=0;align=center;html=1;verticalAlign=top;shape=mxgraph.electrical.resistors.resistor_2;" parent="1" vertex="1">
          <mxGeometry x="800" y="230" width="60" height="20" as="geometry" />
        </mxCell>
        <mxCell id="IWLJOj-bWdNwNhBtovuA-63" value="" style="pointerEvents=1;verticalLabelPosition=bottom;shadow=0;dashed=0;align=center;html=1;verticalAlign=top;shape=mxgraph.electrical.resistors.resistor_2;" parent="1" vertex="1">
          <mxGeometry x="800" y="255" width="60" height="20" as="geometry" />
        </mxCell>
        <mxCell id="IWLJOj-bWdNwNhBtovuA-64" value="" style="pointerEvents=1;verticalLabelPosition=bottom;shadow=0;dashed=0;align=center;html=1;verticalAlign=top;shape=mxgraph.electrical.resistors.resistor_2;" parent="1" vertex="1">
          <mxGeometry x="800" y="280" width="60" height="20" as="geometry" />
        </mxCell>
        <mxCell id="IWLJOj-bWdNwNhBtovuA-65" value="P1.4" style="text;html=1;align=center;verticalAlign=middle;resizable=0;points=[];autosize=1;strokeColor=none;fillColor=none;" parent="1" vertex="1">
          <mxGeometry x="570" y="101" width="44" height="27" as="geometry" />
        </mxCell>
        <mxCell id="IWLJOj-bWdNwNhBtovuA-66" value="P1.5" style="text;html=1;align=center;verticalAlign=middle;resizable=0;points=[];autosize=1;strokeColor=none;fillColor=none;" parent="1" vertex="1">
          <mxGeometry x="570" y="124" width="44" height="27" as="geometry" />
        </mxCell>
        <mxCell id="IWLJOj-bWdNwNhBtovuA-68" value="P1.6" style="text;html=1;align=center;verticalAlign=middle;resizable=0;points=[];autosize=1;strokeColor=none;fillColor=none;" parent="1" vertex="1">
          <mxGeometry x="571" y="144" width="44" height="27" as="geometry" />
        </mxCell>
        <mxCell id="IWLJOj-bWdNwNhBtovuA-69" value="" style="endArrow=none;html=1;rounded=0;entryX=0;entryY=0.5;entryDx=0;entryDy=0;entryPerimeter=0;" parent="1" target="IWLJOj-bWdNwNhBtovuA-56" edge="1">
          <mxGeometry width="50" height="50" relative="1" as="geometry">
            <mxPoint x="610" y="114" as="sourcePoint" />
            <mxPoint x="753" y="110" as="targetPoint" />
          </mxGeometry>
        </mxCell>
        <mxCell id="IWLJOj-bWdNwNhBtovuA-70" value="" style="endArrow=none;html=1;rounded=0;entryX=0;entryY=0.5;entryDx=0;entryDy=0;entryPerimeter=0;exitX=0.864;exitY=-0.222;exitDx=0;exitDy=0;exitPerimeter=0;" parent="1" source="IWLJOj-bWdNwNhBtovuA-68" target="IWLJOj-bWdNwNhBtovuA-59" edge="1">
          <mxGeometry width="50" height="50" relative="1" as="geometry">
            <mxPoint x="702" y="182" as="sourcePoint" />
            <mxPoint x="752" y="132" as="targetPoint" />
          </mxGeometry>
        </mxCell>
        <mxCell id="IWLJOj-bWdNwNhBtovuA-71" value="" style="endArrow=none;html=1;rounded=0;entryX=0;entryY=0.5;entryDx=0;entryDy=0;entryPerimeter=0;exitX=0.886;exitY=0.519;exitDx=0;exitDy=0;exitPerimeter=0;" parent="1" source="IWLJOj-bWdNwNhBtovuA-68" target="IWLJOj-bWdNwNhBtovuA-58" edge="1">
          <mxGeometry width="50" height="50" relative="1" as="geometry">
            <mxPoint x="670" y="331" as="sourcePoint" />
            <mxPoint x="720" y="281" as="targetPoint" />
          </mxGeometry>
        </mxCell>
        <mxCell id="IWLJOj-bWdNwNhBtovuA-72" value="P1.0" style="text;html=1;align=center;verticalAlign=middle;resizable=0;points=[];autosize=1;strokeColor=none;fillColor=none;" parent="1" vertex="1">
          <mxGeometry x="570" y="164" width="44" height="27" as="geometry" />
        </mxCell>
        <mxCell id="IWLJOj-bWdNwNhBtovuA-73" value="" style="endArrow=none;html=1;rounded=0;entryX=0;entryY=0.5;entryDx=0;entryDy=0;entryPerimeter=0;exitX=0.932;exitY=0.63;exitDx=0;exitDy=0;exitPerimeter=0;" parent="1" source="IWLJOj-bWdNwNhBtovuA-72" target="IWLJOj-bWdNwNhBtovuA-60" edge="1">
          <mxGeometry width="50" height="50" relative="1" as="geometry">
            <mxPoint x="668" y="244" as="sourcePoint" />
            <mxPoint x="718" y="194" as="targetPoint" />
          </mxGeometry>
        </mxCell>
        <mxCell id="IWLJOj-bWdNwNhBtovuA-74" value="" style="verticalLabelPosition=bottom;shadow=0;dashed=0;align=center;html=1;verticalAlign=top;shape=mxgraph.electrical.opto_electronics.led_1;pointerEvents=1;" parent="1" vertex="1">
          <mxGeometry x="871" y="104" width="49" height="29" as="geometry" />
        </mxCell>
        <mxCell id="IWLJOj-bWdNwNhBtovuA-76" value="RGB Red" style="text;html=1;align=center;verticalAlign=middle;resizable=0;points=[];autosize=1;strokeColor=none;fillColor=none;" parent="1" vertex="1">
          <mxGeometry x="860" y="84" width="70" height="27" as="geometry" />
        </mxCell>
        <mxCell id="IWLJOj-bWdNwNhBtovuA-77" value="" style="endArrow=none;html=1;rounded=0;exitX=1;exitY=0.5;exitDx=0;exitDy=0;exitPerimeter=0;entryX=0;entryY=0.54;entryDx=0;entryDy=0;entryPerimeter=0;" parent="1" source="IWLJOj-bWdNwNhBtovuA-56" target="IWLJOj-bWdNwNhBtovuA-74" edge="1">
          <mxGeometry width="50" height="50" relative="1" as="geometry">
            <mxPoint x="890" y="218" as="sourcePoint" />
            <mxPoint x="940" y="168" as="targetPoint" />
          </mxGeometry>
        </mxCell>
        <mxCell id="IWLJOj-bWdNwNhBtovuA-91" value="" style="verticalLabelPosition=bottom;shadow=0;dashed=0;align=center;html=1;verticalAlign=top;shape=mxgraph.electrical.opto_electronics.led_1;pointerEvents=1;" parent="1" vertex="1">
          <mxGeometry x="922" y="122" width="49" height="29" as="geometry" />
        </mxCell>
        <mxCell id="IWLJOj-bWdNwNhBtovuA-92" value="RGB Green" style="text;html=1;align=center;verticalAlign=middle;resizable=0;points=[];autosize=1;strokeColor=none;fillColor=none;" parent="1" vertex="1">
          <mxGeometry x="904" y="96" width="82" height="27" as="geometry" />
        </mxCell>
        <mxCell id="IWLJOj-bWdNwNhBtovuA-93" value="" style="endArrow=none;html=1;rounded=0;exitX=1;exitY=0.5;exitDx=0;exitDy=0;exitPerimeter=0;entryX=0;entryY=0.54;entryDx=0;entryDy=0;entryPerimeter=0;" parent="1" source="IWLJOj-bWdNwNhBtovuA-59" target="IWLJOj-bWdNwNhBtovuA-91" edge="1">
          <mxGeometry width="50" height="50" relative="1" as="geometry">
            <mxPoint x="891" y="143" as="sourcePoint" />
            <mxPoint x="971" y="191" as="targetPoint" />
          </mxGeometry>
        </mxCell>
        <mxCell id="IWLJOj-bWdNwNhBtovuA-94" value="" style="verticalLabelPosition=bottom;shadow=0;dashed=0;align=center;html=1;verticalAlign=top;shape=mxgraph.electrical.opto_electronics.led_1;pointerEvents=1;" parent="1" vertex="1">
          <mxGeometry x="889" y="154" width="49" height="29" as="geometry" />
        </mxCell>
        <mxCell id="IWLJOj-bWdNwNhBtovuA-95" value="RGB Blue" style="text;html=1;align=center;verticalAlign=middle;resizable=0;points=[];autosize=1;strokeColor=none;fillColor=none;" parent="1" vertex="1">
          <mxGeometry x="868" y="133" width="72" height="27" as="geometry" />
        </mxCell>
        <mxCell id="IWLJOj-bWdNwNhBtovuA-96" value="" style="endArrow=none;html=1;rounded=0;entryX=0;entryY=0.54;entryDx=0;entryDy=0;entryPerimeter=0;exitX=1;exitY=0.5;exitDx=0;exitDy=0;exitPerimeter=0;" parent="1" source="IWLJOj-bWdNwNhBtovuA-58" target="IWLJOj-bWdNwNhBtovuA-94" edge="1">
          <mxGeometry width="50" height="50" relative="1" as="geometry">
            <mxPoint x="892" y="225" as="sourcePoint" />
            <mxPoint x="938" y="223" as="targetPoint" />
          </mxGeometry>
        </mxCell>
        <mxCell id="IWLJOj-bWdNwNhBtovuA-98" value="" style="verticalLabelPosition=bottom;shadow=0;dashed=0;align=center;html=1;verticalAlign=top;shape=mxgraph.electrical.opto_electronics.led_1;pointerEvents=1;" parent="1" vertex="1">
          <mxGeometry x="955" y="176" width="49" height="29" as="geometry" />
        </mxCell>
        <mxCell id="IWLJOj-bWdNwNhBtovuA-99" value="LED 1" style="text;html=1;align=center;verticalAlign=middle;resizable=0;points=[];autosize=1;strokeColor=none;fillColor=none;" parent="1" vertex="1">
          <mxGeometry x="952" y="150" width="52" height="27" as="geometry" />
        </mxCell>
        <mxCell id="IWLJOj-bWdNwNhBtovuA-100" value="" style="endArrow=none;html=1;rounded=0;exitX=1;exitY=0.5;exitDx=0;exitDy=0;exitPerimeter=0;entryX=0;entryY=0.54;entryDx=0;entryDy=0;entryPerimeter=0;" parent="1" source="IWLJOj-bWdNwNhBtovuA-60" target="IWLJOj-bWdNwNhBtovuA-98" edge="1">
          <mxGeometry width="50" height="50" relative="1" as="geometry">
            <mxPoint x="924" y="197" as="sourcePoint" />
            <mxPoint x="1004" y="245" as="targetPoint" />
          </mxGeometry>
        </mxCell>
        <mxCell id="IWLJOj-bWdNwNhBtovuA-101" value="100 ohm bus&lt;div&gt;&amp;nbsp;4116R LF&lt;/div&gt;" style="text;html=1;align=center;verticalAlign=middle;resizable=0;points=[];autosize=1;strokeColor=none;fillColor=none;" parent="1" vertex="1">
          <mxGeometry x="785" y="61" width="88" height="42" as="geometry" />
        </mxCell>
        <mxCell id="IWLJOj-bWdNwNhBtovuA-102" value="" style="endArrow=none;html=1;rounded=0;" parent="1" edge="1">
          <mxGeometry width="50" height="50" relative="1" as="geometry">
            <mxPoint x="1038" y="117" as="sourcePoint" />
            <mxPoint x="1038" y="260" as="targetPoint" />
          </mxGeometry>
        </mxCell>
        <mxCell id="IWLJOj-bWdNwNhBtovuA-103" value="" style="endArrow=none;html=1;rounded=0;exitX=0.207;exitY=0.889;exitDx=0;exitDy=0;exitPerimeter=0;" parent="1" source="IWLJOj-bWdNwNhBtovuA-92" edge="1">
          <mxGeometry width="50" height="50" relative="1" as="geometry">
            <mxPoint x="909" y="73" as="sourcePoint" />
            <mxPoint x="1038" y="120" as="targetPoint" />
          </mxGeometry>
        </mxCell>
        <mxCell id="IWLJOj-bWdNwNhBtovuA-104" value="" style="endArrow=none;html=1;rounded=0;exitX=1;exitY=0.54;exitDx=0;exitDy=0;exitPerimeter=0;" parent="1" source="IWLJOj-bWdNwNhBtovuA-91" edge="1">
          <mxGeometry width="50" height="50" relative="1" as="geometry">
            <mxPoint x="956" y="403" as="sourcePoint" />
            <mxPoint x="1037" y="138" as="targetPoint" />
          </mxGeometry>
        </mxCell>
        <mxCell id="IWLJOj-bWdNwNhBtovuA-105" value="" style="endArrow=none;html=1;rounded=0;exitX=1;exitY=0.54;exitDx=0;exitDy=0;exitPerimeter=0;" parent="1" source="IWLJOj-bWdNwNhBtovuA-94" edge="1">
          <mxGeometry width="50" height="50" relative="1" as="geometry">
            <mxPoint x="1055" y="145" as="sourcePoint" />
            <mxPoint x="1037" y="170" as="targetPoint" />
          </mxGeometry>
        </mxCell>
        <mxCell id="IWLJOj-bWdNwNhBtovuA-106" value="" style="endArrow=none;html=1;rounded=0;exitX=1;exitY=0.54;exitDx=0;exitDy=0;exitPerimeter=0;" parent="1" source="IWLJOj-bWdNwNhBtovuA-98" edge="1">
          <mxGeometry width="50" height="50" relative="1" as="geometry">
            <mxPoint x="908" y="329" as="sourcePoint" />
            <mxPoint x="1038" y="192" as="targetPoint" />
          </mxGeometry>
        </mxCell>
        <mxCell id="IWLJOj-bWdNwNhBtovuA-107" value="" style="pointerEvents=1;verticalLabelPosition=bottom;shadow=0;dashed=0;align=center;html=1;verticalAlign=top;shape=mxgraph.electrical.signal_sources.signal_ground;" parent="1" vertex="1">
          <mxGeometry x="1015" y="257" width="45" height="30" as="geometry" />
        </mxCell>
        <mxCell id="IWLJOj-bWdNwNhBtovuA-108" value="&lt;sub&gt;&lt;font style=&quot;font-size: 17px;&quot;&gt;DVcc&lt;/font&gt;&lt;/sub&gt;" style="verticalLabelPosition=top;verticalAlign=bottom;shape=mxgraph.electrical.signal_sources.vdd;shadow=0;dashed=0;align=center;strokeWidth=1;fontSize=24;html=1;flipV=1;" parent="1" vertex="1">
          <mxGeometry x="440" y="89" width="38" height="12" as="geometry" />
        </mxCell>
        <mxCell id="IWLJOj-bWdNwNhBtovuA-109" value="&lt;font style=&quot;font-size: 17px;&quot;&gt;DV&lt;sub style=&quot;&quot;&gt;ss&lt;/sub&gt;&lt;/font&gt;" style="pointerEvents=1;verticalLabelPosition=bottom;shadow=0;dashed=0;align=center;html=1;verticalAlign=top;shape=mxgraph.electrical.signal_sources.vss2;fontSize=24;flipV=1;" parent="1" vertex="1">
          <mxGeometry x="480" y="649" width="15" height="14" as="geometry" />
        </mxCell>
        <mxCell id="IWLJOj-bWdNwNhBtovuA-112" value="&lt;span style=&quot;font-size: 14px;&quot;&gt;3.3V&lt;/span&gt;" style="verticalLabelPosition=top;verticalAlign=bottom;shape=mxgraph.electrical.signal_sources.vdd;shadow=0;dashed=0;align=center;strokeWidth=1;fontSize=24;html=1;flipV=1;rotation=-90;" parent="1" vertex="1">
          <mxGeometry x="226" y="400" width="60" height="40" as="geometry" />
        </mxCell>
        <mxCell id="IWLJOj-bWdNwNhBtovuA-119" value="3K&lt;b&gt;Î©&lt;/b&gt;" style="verticalLabelPosition=bottom;shadow=0;dashed=0;align=center;html=1;verticalAlign=top;strokeWidth=1;shape=mxgraph.electrical.resistors.resistor_2;rounded=1;comic=0;labelBackgroundColor=none;fontFamily=Verdana;fontSize=12" parent="1" vertex="1">
          <mxGeometry x="277" y="439" width="58" height="10" as="geometry" />
        </mxCell>
        <mxCell id="IWLJOj-bWdNwNhBtovuA-120" value="" style="endArrow=none;html=1;rounded=0;entryX=0;entryY=0.5;entryDx=0;entryDy=0;entryPerimeter=0;exitX=0;exitY=0.5;exitDx=0;exitDy=0;exitPerimeter=0;" parent="1" source="IWLJOj-bWdNwNhBtovuA-119" target="IWLJOj-bWdNwNhBtovuA-1" edge="1">
          <mxGeometry width="50" height="50" relative="1" as="geometry">
            <mxPoint x="277" y="440" as="sourcePoint" />
            <mxPoint x="295" y="465" as="targetPoint" />
          </mxGeometry>
        </mxCell>
        <mxCell id="IWLJOj-bWdNwNhBtovuA-121" value="P1.3 SCL" style="text;html=1;align=center;verticalAlign=middle;resizable=0;points=[];autosize=1;strokeColor=none;fillColor=none;" parent="1" vertex="1">
          <mxGeometry x="377" y="391" width="70" height="27" as="geometry" />
        </mxCell>
        <mxCell id="IWLJOj-bWdNwNhBtovuA-122" value="P1.2 SDA" style="text;html=1;align=center;verticalAlign=middle;resizable=0;points=[];autosize=1;strokeColor=none;fillColor=none;" parent="1" vertex="1">
          <mxGeometry x="377" y="432" width="72" height="27" as="geometry" />
        </mxCell>
        <mxCell id="IWLJOj-bWdNwNhBtovuA-123" value="&lt;span style=&quot;color: rgb(0, 0, 0); font-family: Helvetica; font-size: 12px; font-style: normal; font-variant-ligatures: normal; font-variant-caps: normal; font-weight: 400; letter-spacing: normal; orphans: 2; text-align: center; text-indent: 0px; text-transform: none; widows: 2; word-spacing: 0px; -webkit-text-stroke-width: 0px; white-space: nowrap; background-color: rgb(251, 251, 251); text-decoration-thickness: initial; text-decoration-style: initial; text-decoration-color: initial; float: none; display: inline !important;&quot;&gt;P5.0 A8&lt;/span&gt;" style="text;whiteSpace=wrap;html=1;" parent="1" vertex="1">
          <mxGeometry x="563" y="361" width="48" height="28" as="geometry" />
        </mxCell>
        <mxCell id="IWLJOj-bWdNwNhBtovuA-130" value="" style="endArrow=none;html=1;rounded=0;exitX=1;exitY=0.5;exitDx=0;exitDy=0;exitPerimeter=0;entryX=0.036;entryY=0.45;entryDx=0;entryDy=0;entryPerimeter=0;" parent="1" source="IWLJOj-bWdNwNhBtovuA-119" target="IWLJOj-bWdNwNhBtovuA-122" edge="1">
          <mxGeometry width="50" height="50" relative="1" as="geometry">
            <mxPoint x="262" y="534" as="sourcePoint" />
            <mxPoint x="366" y="456" as="targetPoint" />
          </mxGeometry>
        </mxCell>
        <mxCell id="IWLJOj-bWdNwNhBtovuA-131" value="" style="endArrow=none;html=1;rounded=0;exitX=1;exitY=0.5;exitDx=0;exitDy=0;exitPerimeter=0;entryX=0.037;entryY=0.459;entryDx=0;entryDy=0;entryPerimeter=0;" parent="1" source="IWLJOj-bWdNwNhBtovuA-1" target="IWLJOj-bWdNwNhBtovuA-121" edge="1">
          <mxGeometry width="50" height="50" relative="1" as="geometry">
            <mxPoint x="345" y="423" as="sourcePoint" />
            <mxPoint x="395" y="373" as="targetPoint" />
          </mxGeometry>
        </mxCell>
        <mxCell id="IWLJOj-bWdNwNhBtovuA-132" value="" style="endArrow=none;html=1;rounded=0;" parent="1" edge="1">
          <mxGeometry width="50" height="50" relative="1" as="geometry">
            <mxPoint x="356" y="1111" as="sourcePoint" />
            <mxPoint x="356" y="401" as="targetPoint" />
          </mxGeometry>
        </mxCell>
        <mxCell id="IWLJOj-bWdNwNhBtovuA-216" value="" style="endArrow=none;html=1;rounded=0;movable=0;resizable=0;rotatable=0;deletable=0;editable=0;locked=1;connectable=0;" parent="1" edge="1">
          <mxGeometry width="50" height="50" relative="1" as="geometry">
            <mxPoint x="924" y="763" as="sourcePoint" />
            <mxPoint x="924" y="968" as="targetPoint" />
          </mxGeometry>
        </mxCell>
        <mxCell id="IWLJOj-bWdNwNhBtovuA-227" value="" style="rounded=0;whiteSpace=wrap;html=1;" parent="1" vertex="1">
          <mxGeometry x="386" y="1013" width="188" height="250" as="geometry" />
        </mxCell>
        <mxCell id="IWLJOj-bWdNwNhBtovuA-228" value="FR2311" style="text;html=1;align=center;verticalAlign=middle;resizable=0;points=[];autosize=1;strokeColor=none;fillColor=none;" parent="1" vertex="1">
          <mxGeometry x="443" y="1019" width="61" height="27" as="geometry" />
        </mxCell>
        <mxCell id="IWLJOj-bWdNwNhBtovuA-229" value="P1.0" style="text;html=1;align=center;verticalAlign=middle;resizable=0;points=[];autosize=1;strokeColor=none;fillColor=none;" parent="1" vertex="1">
          <mxGeometry x="538" y="1076" width="44" height="27" as="geometry" />
        </mxCell>
        <mxCell id="IWLJOj-bWdNwNhBtovuA-230" value="P1.1" style="text;html=1;align=center;verticalAlign=middle;resizable=0;points=[];autosize=1;strokeColor=none;fillColor=none;" parent="1" vertex="1">
          <mxGeometry x="537" y="1056" width="44" height="27" as="geometry" />
        </mxCell>
        <mxCell id="IWLJOj-bWdNwNhBtovuA-231" value="P2.6" style="text;html=1;align=center;verticalAlign=middle;resizable=0;points=[];autosize=1;strokeColor=none;fillColor=none;" parent="1" vertex="1">
          <mxGeometry x="538" y="1037" width="44" height="27" as="geometry" />
        </mxCell>
        <mxCell id="IWLJOj-bWdNwNhBtovuA-232" value="P2.7" style="text;html=1;align=center;verticalAlign=middle;resizable=0;points=[];autosize=1;strokeColor=none;fillColor=none;" parent="1" vertex="1">
          <mxGeometry x="539" y="1022" width="44" height="27" as="geometry" />
        </mxCell>
        <mxCell id="IWLJOj-bWdNwNhBtovuA-233" value="&lt;sub&gt;&lt;font style=&quot;font-size: 17px;&quot;&gt;DVcc&lt;/font&gt;&lt;/sub&gt;" style="verticalLabelPosition=top;verticalAlign=bottom;shape=mxgraph.electrical.signal_sources.vdd;shadow=0;dashed=0;align=center;strokeWidth=1;fontSize=24;html=1;flipV=1;" parent="1" vertex="1">
          <mxGeometry x="456" y="1001" width="38" height="12" as="geometry" />
        </mxCell>
        <mxCell id="IWLJOj-bWdNwNhBtovuA-234" value="&lt;font style=&quot;font-size: 17px;&quot;&gt;DV&lt;sub style=&quot;&quot;&gt;ss&lt;/sub&gt;&lt;/font&gt;" style="pointerEvents=1;verticalLabelPosition=bottom;shadow=0;dashed=0;align=center;html=1;verticalAlign=top;shape=mxgraph.electrical.signal_sources.vss2;fontSize=24;flipV=1;" parent="1" vertex="1">
          <mxGeometry x="468" y="1261" width="15" height="14" as="geometry" />
        </mxCell>
        <mxCell id="IWLJOj-bWdNwNhBtovuA-235" value="P1.3 SCL" style="text;html=1;align=center;verticalAlign=middle;resizable=0;points=[];autosize=1;strokeColor=none;fillColor=none;" parent="1" vertex="1">
          <mxGeometry x="383" y="1050" width="70" height="27" as="geometry" />
        </mxCell>
        <mxCell id="IWLJOj-bWdNwNhBtovuA-236" value="P1.2 SDA" style="text;html=1;align=center;verticalAlign=middle;resizable=0;points=[];autosize=1;strokeColor=none;fillColor=none;" parent="1" vertex="1">
          <mxGeometry x="383" y="1091" width="72" height="27" as="geometry" />
        </mxCell>
        <mxCell id="IWLJOj-bWdNwNhBtovuA-237" value="P1.4" style="text;html=1;align=center;verticalAlign=middle;resizable=0;points=[];autosize=1;strokeColor=none;fillColor=none;" parent="1" vertex="1">
          <mxGeometry x="539" y="1135" width="44" height="27" as="geometry" />
        </mxCell>
        <mxCell id="IWLJOj-bWdNwNhBtovuA-238" value="P1.5" style="text;html=1;align=center;verticalAlign=middle;resizable=0;points=[];autosize=1;strokeColor=none;fillColor=none;" parent="1" vertex="1">
          <mxGeometry x="539" y="1104" width="44" height="27" as="geometry" />
        </mxCell>
        <mxCell id="IWLJOj-bWdNwNhBtovuA-241" value="" style="endArrow=none;html=1;rounded=0;entryX=0.007;entryY=0.384;entryDx=0;entryDy=0;entryPerimeter=0;" parent="1" target="IWLJOj-bWdNwNhBtovuA-227" edge="1">
          <mxGeometry width="50" height="50" relative="1" as="geometry">
            <mxPoint x="355" y="1109" as="sourcePoint" />
            <mxPoint x="319" y="1079" as="targetPoint" />
          </mxGeometry>
        </mxCell>
        <mxCell id="IWLJOj-bWdNwNhBtovuA-242" value="" style="endArrow=none;html=1;rounded=0;entryX=0.051;entryY=0.536;entryDx=0;entryDy=0;entryPerimeter=0;" parent="1" target="IWLJOj-bWdNwNhBtovuA-235" edge="1">
          <mxGeometry width="50" height="50" relative="1" as="geometry">
            <mxPoint x="357" y="1064" as="sourcePoint" />
            <mxPoint x="308" y="1002" as="targetPoint" />
          </mxGeometry>
        </mxCell>
        <mxCell id="IWLJOj-bWdNwNhBtovuA-243" value="" style="verticalLabelPosition=bottom;shadow=0;dashed=0;align=center;html=1;verticalAlign=top;shape=mxgraph.electrical.opto_electronics.led_1;pointerEvents=1;" parent="1" vertex="1">
          <mxGeometry x="643" y="1229" width="49" height="29" as="geometry" />
        </mxCell>
        <mxCell id="IWLJOj-bWdNwNhBtovuA-244" value="LED 2" style="text;html=1;align=center;verticalAlign=middle;resizable=0;points=[];autosize=1;strokeColor=none;fillColor=none;" parent="1" vertex="1">
          <mxGeometry x="641" y="1209" width="52" height="27" as="geometry" />
        </mxCell>
        <mxCell id="IWLJOj-bWdNwNhBtovuA-245" value="100&amp;nbsp;&lt;b&gt;Î©&lt;/b&gt;" style="verticalLabelPosition=bottom;shadow=0;dashed=0;align=center;html=1;verticalAlign=top;strokeWidth=1;shape=mxgraph.electrical.resistors.resistor_2;rounded=1;comic=0;labelBackgroundColor=none;fontFamily=Verdana;fontSize=12" parent="1" vertex="1">
          <mxGeometry x="585" y="1239" width="58" height="10" as="geometry" />
        </mxCell>
        <mxCell id="IWLJOj-bWdNwNhBtovuA-246" value="P2.0" style="text;html=1;align=center;verticalAlign=middle;resizable=0;points=[];autosize=1;strokeColor=none;fillColor=none;" parent="1" vertex="1">
          <mxGeometry x="537" y="1232" width="44" height="27" as="geometry" />
        </mxCell>
        <mxCell id="IWLJOj-bWdNwNhBtovuA-247" value="" style="endArrow=none;html=1;rounded=0;exitX=0.882;exitY=0.448;exitDx=0;exitDy=0;exitPerimeter=0;" parent="1" source="IWLJOj-bWdNwNhBtovuA-246" edge="1">
          <mxGeometry width="50" height="50" relative="1" as="geometry">
            <mxPoint x="542" y="1315" as="sourcePoint" />
            <mxPoint x="585" y="1244" as="targetPoint" />
          </mxGeometry>
        </mxCell>
        <mxCell id="IWLJOj-bWdNwNhBtovuA-248" value="" style="pointerEvents=1;verticalLabelPosition=bottom;shadow=0;dashed=0;align=center;html=1;verticalAlign=top;shape=mxgraph.electrical.signal_sources.signal_ground;" parent="1" vertex="1">
          <mxGeometry x="808" y="1212" width="25" height="18" as="geometry" />
        </mxCell>
        <mxCell id="IWLJOj-bWdNwNhBtovuA-250" value="" style="rounded=0;whiteSpace=wrap;html=1;" parent="1" vertex="1">
          <mxGeometry x="736" y="1006" width="132" height="208" as="geometry" />
        </mxCell>
        <mxCell id="IWLJOj-bWdNwNhBtovuA-251" value="LCD Display" style="text;html=1;align=center;verticalAlign=middle;resizable=0;points=[];autosize=1;strokeColor=none;fillColor=none;" parent="1" vertex="1">
          <mxGeometry x="759" y="1005" width="86" height="27" as="geometry" />
        </mxCell>
        <mxCell id="IWLJOj-bWdNwNhBtovuA-252" value="P14" style="text;html=1;align=center;verticalAlign=middle;resizable=0;points=[];autosize=1;strokeColor=none;fillColor=none;" parent="1" vertex="1">
          <mxGeometry x="731" y="1011" width="40" height="27" as="geometry" />
        </mxCell>
        <mxCell id="IWLJOj-bWdNwNhBtovuA-253" value="P13" style="text;html=1;align=center;verticalAlign=middle;resizable=0;points=[];autosize=1;strokeColor=none;fillColor=none;" parent="1" vertex="1">
          <mxGeometry x="730" y="1026" width="40" height="27" as="geometry" />
        </mxCell>
        <mxCell id="IWLJOj-bWdNwNhBtovuA-254" value="P12" style="text;html=1;align=center;verticalAlign=middle;resizable=0;points=[];autosize=1;strokeColor=none;fillColor=none;" parent="1" vertex="1">
          <mxGeometry x="731" y="1041" width="40" height="27" as="geometry" />
        </mxCell>
        <mxCell id="IWLJOj-bWdNwNhBtovuA-255" value="P11" style="text;html=1;align=center;verticalAlign=middle;resizable=0;points=[];autosize=1;strokeColor=none;fillColor=none;" parent="1" vertex="1">
          <mxGeometry x="731" y="1060" width="39" height="27" as="geometry" />
        </mxCell>
        <mxCell id="IWLJOj-bWdNwNhBtovuA-256" value="P6" style="text;html=1;align=center;verticalAlign=middle;resizable=0;points=[];autosize=1;strokeColor=none;fillColor=none;" parent="1" vertex="1">
          <mxGeometry x="732" y="1093" width="34" height="27" as="geometry" />
        </mxCell>
        <mxCell id="IWLJOj-bWdNwNhBtovuA-257" value="P4" style="text;html=1;align=center;verticalAlign=middle;resizable=0;points=[];autosize=1;strokeColor=none;fillColor=none;" parent="1" vertex="1">
          <mxGeometry x="731" y="1123" width="34" height="27" as="geometry" />
        </mxCell>
        <mxCell id="IWLJOj-bWdNwNhBtovuA-258" value="" style="endArrow=none;html=1;rounded=0;exitX=0.837;exitY=0.481;exitDx=0;exitDy=0;exitPerimeter=0;entryX=0.168;entryY=-0.071;entryDx=0;entryDy=0;entryPerimeter=0;" parent="1" source="IWLJOj-bWdNwNhBtovuA-232" target="IWLJOj-bWdNwNhBtovuA-253" edge="1">
          <mxGeometry width="50" height="50" relative="1" as="geometry">
            <mxPoint x="626" y="997" as="sourcePoint" />
            <mxPoint x="676" y="947" as="targetPoint" />
          </mxGeometry>
        </mxCell>
        <mxCell id="IWLJOj-bWdNwNhBtovuA-259" value="" style="endArrow=none;html=1;rounded=0;exitX=0.816;exitY=1.088;exitDx=0;exitDy=0;exitPerimeter=0;entryX=0.12;entryY=-0.02;entryDx=0;entryDy=0;entryPerimeter=0;" parent="1" source="IWLJOj-bWdNwNhBtovuA-232" target="IWLJOj-bWdNwNhBtovuA-254" edge="1">
          <mxGeometry width="50" height="50" relative="1" as="geometry">
            <mxPoint x="589" y="1106" as="sourcePoint" />
            <mxPoint x="639" y="1056" as="targetPoint" />
          </mxGeometry>
        </mxCell>
        <mxCell id="IWLJOj-bWdNwNhBtovuA-260" value="" style="endArrow=none;html=1;rounded=0;exitX=0.798;exitY=-0.273;exitDx=0;exitDy=0;exitPerimeter=0;entryX=0.145;entryY=1.175;entryDx=0;entryDy=0;entryPerimeter=0;" parent="1" source="IWLJOj-bWdNwNhBtovuA-229" target="IWLJOj-bWdNwNhBtovuA-253" edge="1">
          <mxGeometry width="50" height="50" relative="1" as="geometry">
            <mxPoint x="623" y="1120" as="sourcePoint" />
            <mxPoint x="673" y="1070" as="targetPoint" />
          </mxGeometry>
        </mxCell>
        <mxCell id="IWLJOj-bWdNwNhBtovuA-261" value="" style="endArrow=none;html=1;rounded=0;exitX=0.841;exitY=1.222;exitDx=0;exitDy=0;exitPerimeter=0;entryX=0.124;entryY=0.488;entryDx=0;entryDy=0;entryPerimeter=0;" parent="1" source="IWLJOj-bWdNwNhBtovuA-230" target="IWLJOj-bWdNwNhBtovuA-255" edge="1">
          <mxGeometry width="50" height="50" relative="1" as="geometry">
            <mxPoint x="638" y="1142" as="sourcePoint" />
            <mxPoint x="688" y="1092" as="targetPoint" />
          </mxGeometry>
        </mxCell>
        <mxCell id="IWLJOj-bWdNwNhBtovuA-262" value="" style="endArrow=none;html=1;rounded=0;exitX=1.005;exitY=0.423;exitDx=0;exitDy=0;exitPerimeter=0;entryX=0.139;entryY=0.512;entryDx=0;entryDy=0;entryPerimeter=0;" parent="1" source="IWLJOj-bWdNwNhBtovuA-227" target="IWLJOj-bWdNwNhBtovuA-256" edge="1">
          <mxGeometry width="50" height="50" relative="1" as="geometry">
            <mxPoint x="632" y="1195" as="sourcePoint" />
            <mxPoint x="682" y="1145" as="targetPoint" />
          </mxGeometry>
        </mxCell>
        <mxCell id="IWLJOj-bWdNwNhBtovuA-263" value="" style="endArrow=none;html=1;rounded=0;exitX=1.015;exitY=0.546;exitDx=0;exitDy=0;exitPerimeter=0;entryX=0.142;entryY=0.545;entryDx=0;entryDy=0;entryPerimeter=0;" parent="1" source="IWLJOj-bWdNwNhBtovuA-227" target="IWLJOj-bWdNwNhBtovuA-257" edge="1">
          <mxGeometry width="50" height="50" relative="1" as="geometry">
            <mxPoint x="640" y="1194" as="sourcePoint" />
            <mxPoint x="690" y="1144" as="targetPoint" />
          </mxGeometry>
        </mxCell>
        <mxCell id="IWLJOj-bWdNwNhBtovuA-264" value="P2" style="text;html=1;align=center;verticalAlign=middle;resizable=0;points=[];autosize=1;strokeColor=none;fillColor=none;" parent="1" vertex="1">
          <mxGeometry x="838" y="1034" width="34" height="27" as="geometry" />
        </mxCell>
        <mxCell id="IWLJOj-bWdNwNhBtovuA-265" value="P1" style="text;html=1;align=center;verticalAlign=middle;resizable=0;points=[];autosize=1;strokeColor=none;fillColor=none;" parent="1" vertex="1">
          <mxGeometry x="832" y="1193" width="34" height="27" as="geometry" />
        </mxCell>
        <mxCell id="IWLJOj-bWdNwNhBtovuA-266" value="P5" style="text;html=1;align=center;verticalAlign=middle;resizable=0;points=[];autosize=1;strokeColor=none;fillColor=none;" parent="1" vertex="1">
          <mxGeometry x="804" y="1192" width="34" height="27" as="geometry" />
        </mxCell>
        <mxCell id="IWLJOj-bWdNwNhBtovuA-267" value="" style="pointerEvents=1;verticalLabelPosition=bottom;shadow=0;dashed=0;align=center;html=1;verticalAlign=top;shape=mxgraph.electrical.signal_sources.signal_ground;" parent="1" vertex="1">
          <mxGeometry x="681" y="1244" width="25" height="18" as="geometry" />
        </mxCell>
        <mxCell id="IWLJOj-bWdNwNhBtovuA-268" value="" style="pointerEvents=1;verticalLabelPosition=bottom;shadow=0;dashed=0;align=center;html=1;verticalAlign=top;shape=mxgraph.electrical.signal_sources.signal_ground;" parent="1" vertex="1">
          <mxGeometry x="837" y="1212" width="25" height="18" as="geometry" />
        </mxCell>
        <mxCell id="IWLJOj-bWdNwNhBtovuA-269" value="&lt;span style=&quot;font-size: 14px;&quot;&gt;3.3V&lt;/span&gt;" style="verticalLabelPosition=top;verticalAlign=bottom;shape=mxgraph.electrical.signal_sources.vdd;shadow=0;dashed=0;align=center;strokeWidth=1;fontSize=24;html=1;flipV=1;rotation=0;" parent="1" vertex="1">
          <mxGeometry x="875" y="1035" width="33" height="12" as="geometry" />
        </mxCell>
        <mxCell id="IWLJOj-bWdNwNhBtovuA-270" value="" style="endArrow=none;html=1;rounded=0;entryX=0.5;entryY=0;entryDx=0;entryDy=0;entryPerimeter=0;exitX=0.898;exitY=0.508;exitDx=0;exitDy=0;exitPerimeter=0;" parent="1" source="IWLJOj-bWdNwNhBtovuA-264" target="IWLJOj-bWdNwNhBtovuA-269" edge="1">
          <mxGeometry width="50" height="50" relative="1" as="geometry">
            <mxPoint x="993" y="1185" as="sourcePoint" />
            <mxPoint x="1043" y="1135" as="targetPoint" />
          </mxGeometry>
        </mxCell>
        <mxCell id="IWLJOj-bWdNwNhBtovuA-271" value="P3" style="text;html=1;align=center;verticalAlign=middle;resizable=0;points=[];autosize=1;strokeColor=none;fillColor=none;" parent="1" vertex="1">
          <mxGeometry x="841" y="1140" width="34" height="27" as="geometry" />
        </mxCell>
        <mxCell id="IWLJOj-bWdNwNhBtovuA-272" value="39K&lt;b&gt;Î©&lt;/b&gt;" style="verticalLabelPosition=bottom;shadow=0;dashed=0;align=center;html=1;verticalAlign=top;strokeWidth=1;shape=mxgraph.electrical.resistors.resistor_2;rounded=1;comic=0;labelBackgroundColor=none;fontFamily=Verdana;fontSize=12" parent="1" vertex="1">
          <mxGeometry x="869" y="1147" width="58" height="10" as="geometry" />
        </mxCell>
        <mxCell id="IWLJOj-bWdNwNhBtovuA-274" value="39K&lt;b&gt;Î©&lt;/b&gt;" style="verticalLabelPosition=bottom;shadow=0;dashed=0;align=center;html=1;verticalAlign=top;strokeWidth=1;shape=mxgraph.electrical.resistors.resistor_2;rounded=1;comic=0;labelBackgroundColor=none;fontFamily=Verdana;fontSize=12;rotation=90;" parent="1" vertex="1">
          <mxGeometry x="920" y="1177" width="58" height="10" as="geometry" />
        </mxCell>
        <mxCell id="IWLJOj-bWdNwNhBtovuA-275" value="&lt;span style=&quot;font-size: 14px;&quot;&gt;-3.3V&lt;/span&gt;" style="verticalLabelPosition=top;verticalAlign=bottom;shape=mxgraph.electrical.signal_sources.vdd;shadow=0;dashed=0;align=center;strokeWidth=1;fontSize=24;html=1;flipV=1;rotation=0;" parent="1" vertex="1">
          <mxGeometry x="932" y="1145" width="33" height="12" as="geometry" />
        </mxCell>
        <mxCell id="IWLJOj-bWdNwNhBtovuA-278" value="" style="pointerEvents=1;verticalLabelPosition=bottom;shadow=0;dashed=0;align=center;html=1;verticalAlign=top;shape=mxgraph.electrical.signal_sources.signal_ground;" parent="1" vertex="1">
          <mxGeometry x="937" y="1210" width="25" height="18" as="geometry" />
        </mxCell>
        <mxCell id="IWLJOj-bWdNwNhBtovuA-279" value="" style="endArrow=none;html=1;rounded=0;exitX=1;exitY=0.5;exitDx=0;exitDy=0;exitPerimeter=0;entryX=0.497;entryY=0.357;entryDx=0;entryDy=0;entryPerimeter=0;" parent="1" source="IWLJOj-bWdNwNhBtovuA-272" target="IWLJOj-bWdNwNhBtovuA-275" edge="1">
          <mxGeometry width="50" height="50" relative="1" as="geometry">
            <mxPoint x="959" y="1189" as="sourcePoint" />
            <mxPoint x="1009" y="1139" as="targetPoint" />
          </mxGeometry>
        </mxCell>
        <mxCell id="TFsiBEiIKWwjcny5A-zg-8" value="P4.6 SIMO" style="text;html=1;align=center;verticalAlign=middle;resizable=0;points=[];autosize=1;strokeColor=none;fillColor=none;" parent="1" vertex="1">
          <mxGeometry x="539" y="557" width="78" height="27" as="geometry" />
        </mxCell>
        <mxCell id="TFsiBEiIKWwjcny5A-zg-27" value="P4.7 SOMI" style="text;html=1;align=center;verticalAlign=middle;resizable=0;points=[];autosize=1;strokeColor=none;fillColor=none;" parent="1" vertex="1">
          <mxGeometry x="538" y="530" width="78" height="27" as="geometry" />
        </mxCell>
        <mxCell id="7faKkvcica3CiBU6TqeW-2" value="" style="rounded=0;whiteSpace=wrap;html=1;rotation=90;" vertex="1" parent="1">
          <mxGeometry x="418" y="802" width="152" height="104" as="geometry" />
        </mxCell>
        <mxCell id="7faKkvcica3CiBU6TqeW-3" value="25LC256" style="text;html=1;align=center;verticalAlign=middle;resizable=0;points=[];autosize=1;strokeColor=none;fillColor=none;" vertex="1" parent="1">
          <mxGeometry x="460" y="791" width="68" height="27" as="geometry" />
        </mxCell>
        <mxCell id="7faKkvcica3CiBU6TqeW-4" value="P4.5 CLK" style="text;html=1;align=center;verticalAlign=middle;resizable=0;points=[];autosize=1;strokeColor=none;fillColor=none;" vertex="1" parent="1">
          <mxGeometry x="546" y="582" width="70" height="27" as="geometry" />
        </mxCell>
        <mxCell id="7faKkvcica3CiBU6TqeW-5" value="P4.4 STE" style="text;html=1;align=center;verticalAlign=middle;resizable=0;points=[];autosize=1;strokeColor=none;fillColor=none;" vertex="1" parent="1">
          <mxGeometry x="544" y="610" width="70" height="27" as="geometry" />
        </mxCell>
        <mxCell id="7faKkvcica3CiBU6TqeW-6" value="SO" style="text;html=1;align=center;verticalAlign=middle;resizable=0;points=[];autosize=1;strokeColor=none;fillColor=none;" vertex="1" parent="1">
          <mxGeometry x="515" y="896" width="36" height="27" as="geometry" />
        </mxCell>
        <mxCell id="7faKkvcica3CiBU6TqeW-7" value="SCK" style="text;html=1;align=center;verticalAlign=middle;resizable=0;points=[];autosize=1;strokeColor=none;fillColor=none;" vertex="1" parent="1">
          <mxGeometry x="508" y="858" width="44" height="27" as="geometry" />
        </mxCell>
        <mxCell id="7faKkvcica3CiBU6TqeW-8" value="SI" style="text;html=1;align=center;verticalAlign=middle;resizable=0;points=[];autosize=1;strokeColor=none;fillColor=none;" vertex="1" parent="1">
          <mxGeometry x="520" y="876" width="30" height="27" as="geometry" />
        </mxCell>
        <mxCell id="7faKkvcica3CiBU6TqeW-11" value="" style="endArrow=none;html=1;rounded=0;exitX=0.924;exitY=0.526;exitDx=0;exitDy=0;exitPerimeter=0;" edge="1" parent="1" source="7faKkvcica3CiBU6TqeW-5">
          <mxGeometry width="50" height="50" relative="1" as="geometry">
            <mxPoint x="682" y="743" as="sourcePoint" />
            <mxPoint x="631" y="624" as="targetPoint" />
          </mxGeometry>
        </mxCell>
        <mxCell id="7faKkvcica3CiBU6TqeW-14" value="" style="endArrow=none;html=1;rounded=0;" edge="1" parent="1">
          <mxGeometry width="50" height="50" relative="1" as="geometry">
            <mxPoint x="631" y="855" as="sourcePoint" />
            <mxPoint x="631" y="623" as="targetPoint" />
          </mxGeometry>
        </mxCell>
        <mxCell id="7faKkvcica3CiBU6TqeW-15" value="" style="endArrow=none;html=1;rounded=0;" edge="1" parent="1">
          <mxGeometry width="50" height="50" relative="1" as="geometry">
            <mxPoint x="671" y="889" as="sourcePoint" />
            <mxPoint x="671" y="576" as="targetPoint" />
          </mxGeometry>
        </mxCell>
        <mxCell id="7faKkvcica3CiBU6TqeW-16" value="" style="endArrow=none;html=1;rounded=0;exitX=0.5;exitY=0;exitDx=0;exitDy=0;" edge="1" parent="1" source="7faKkvcica3CiBU6TqeW-2">
          <mxGeometry width="50" height="50" relative="1" as="geometry">
            <mxPoint x="588" y="949" as="sourcePoint" />
            <mxPoint x="630" y="854" as="targetPoint" />
          </mxGeometry>
        </mxCell>
        <mxCell id="7faKkvcica3CiBU6TqeW-17" value="" style="endArrow=none;html=1;rounded=0;" edge="1" parent="1">
          <mxGeometry width="50" height="50" relative="1" as="geometry">
            <mxPoint x="648" y="871" as="sourcePoint" />
            <mxPoint x="648" y="597" as="targetPoint" />
          </mxGeometry>
        </mxCell>
        <mxCell id="7faKkvcica3CiBU6TqeW-18" value="" style="endArrow=none;html=1;rounded=0;exitX=0.5;exitY=0;exitDx=0;exitDy=0;" edge="1" parent="1">
          <mxGeometry width="50" height="50" relative="1" as="geometry">
            <mxPoint x="611" y="598" as="sourcePoint" />
            <mxPoint x="648" y="598" as="targetPoint" />
          </mxGeometry>
        </mxCell>
        <mxCell id="7faKkvcica3CiBU6TqeW-19" value="" style="endArrow=none;html=1;rounded=0;exitX=0.5;exitY=0;exitDx=0;exitDy=0;" edge="1" parent="1">
          <mxGeometry width="50" height="50" relative="1" as="geometry">
            <mxPoint x="545" y="871" as="sourcePoint" />
            <mxPoint x="648" y="871" as="targetPoint" />
          </mxGeometry>
        </mxCell>
        <mxCell id="7faKkvcica3CiBU6TqeW-20" value="" style="endArrow=none;html=1;rounded=0;exitX=0.5;exitY=0;exitDx=0;exitDy=0;" edge="1" parent="1">
          <mxGeometry width="50" height="50" relative="1" as="geometry">
            <mxPoint x="609" y="577" as="sourcePoint" />
            <mxPoint x="671" y="577" as="targetPoint" />
          </mxGeometry>
        </mxCell>
        <mxCell id="7faKkvcica3CiBU6TqeW-21" value="" style="endArrow=none;html=1;rounded=0;exitX=0.5;exitY=0;exitDx=0;exitDy=0;" edge="1" parent="1">
          <mxGeometry width="50" height="50" relative="1" as="geometry">
            <mxPoint x="609" y="545" as="sourcePoint" />
            <mxPoint x="697" y="545" as="targetPoint" />
          </mxGeometry>
        </mxCell>
        <mxCell id="7faKkvcica3CiBU6TqeW-22" value="" style="endArrow=none;html=1;rounded=0;exitX=0.73;exitY=0.005;exitDx=0;exitDy=0;exitPerimeter=0;" edge="1" parent="1" source="7faKkvcica3CiBU6TqeW-2">
          <mxGeometry width="50" height="50" relative="1" as="geometry">
            <mxPoint x="547" y="889" as="sourcePoint" />
            <mxPoint x="671" y="889" as="targetPoint" />
          </mxGeometry>
        </mxCell>
        <mxCell id="7faKkvcica3CiBU6TqeW-23" value="" style="endArrow=none;html=1;rounded=0;" edge="1" parent="1">
          <mxGeometry width="50" height="50" relative="1" as="geometry">
            <mxPoint x="697" y="910" as="sourcePoint" />
            <mxPoint x="697" y="544" as="targetPoint" />
          </mxGeometry>
        </mxCell>
        <mxCell id="7faKkvcica3CiBU6TqeW-24" value="" style="endArrow=none;html=1;rounded=0;exitX=0.865;exitY=-0.005;exitDx=0;exitDy=0;exitPerimeter=0;" edge="1" parent="1" source="7faKkvcica3CiBU6TqeW-2">
          <mxGeometry width="50" height="50" relative="1" as="geometry">
            <mxPoint x="547" y="910" as="sourcePoint" />
            <mxPoint x="698" y="910" as="targetPoint" />
          </mxGeometry>
        </mxCell>
        <mxCell id="7faKkvcica3CiBU6TqeW-25" value="&lt;sub&gt;&lt;font style=&quot;font-size: 17px;&quot;&gt;DVcc&lt;/font&gt;&lt;/sub&gt;" style="verticalLabelPosition=top;verticalAlign=bottom;shape=mxgraph.electrical.signal_sources.vdd;shadow=0;dashed=0;align=center;strokeWidth=1;fontSize=24;html=1;flipV=1;" vertex="1" parent="1">
          <mxGeometry x="476" y="766" width="38" height="12" as="geometry" />
        </mxCell>
        <mxCell id="7faKkvcica3CiBU6TqeW-27" value="&lt;font style=&quot;font-size: 17px;&quot;&gt;DV&lt;sub style=&quot;&quot;&gt;ss&lt;/sub&gt;&lt;/font&gt;" style="pointerEvents=1;verticalLabelPosition=bottom;shadow=0;dashed=0;align=center;html=1;verticalAlign=top;shape=mxgraph.electrical.signal_sources.vss2;fontSize=24;flipV=1;" vertex="1" parent="1">
          <mxGeometry x="490" y="929" width="15" height="14" as="geometry" />
        </mxCell>
        <mxCell id="7faKkvcica3CiBU6TqeW-29" value="CS" style="text;html=1;align=center;verticalAlign=middle;resizable=0;points=[];autosize=1;strokeColor=none;fillColor=none;" vertex="1" parent="1">
          <mxGeometry x="517" y="841" width="36" height="27" as="geometry" />
        </mxCell>
        <mxCell id="7faKkvcica3CiBU6TqeW-30" value="" style="endArrow=none;html=1;rounded=0;" edge="1" parent="1">
          <mxGeometry width="50" height="50" relative="1" as="geometry">
            <mxPoint x="527" y="848" as="sourcePoint" />
            <mxPoint x="544" y="848" as="targetPoint" />
          </mxGeometry>
        </mxCell>
        <mxCell id="7faKkvcica3CiBU6TqeW-31" value="WP" style="text;html=1;align=center;verticalAlign=middle;resizable=0;points=[];autosize=1;strokeColor=none;fillColor=none;" vertex="1" parent="1">
          <mxGeometry x="435" y="814" width="38" height="27" as="geometry" />
        </mxCell>
        <mxCell id="7faKkvcica3CiBU6TqeW-32" value="" style="endArrow=none;html=1;rounded=0;" edge="1" parent="1">
          <mxGeometry width="50" height="50" relative="1" as="geometry">
            <mxPoint x="446" y="821" as="sourcePoint" />
            <mxPoint x="463" y="821" as="targetPoint" />
          </mxGeometry>
        </mxCell>
        <mxCell id="7faKkvcica3CiBU6TqeW-33" value="HOLD" style="text;html=1;align=center;verticalAlign=middle;resizable=0;points=[];autosize=1;strokeColor=none;fillColor=none;" vertex="1" parent="1">
          <mxGeometry x="435" y="878" width="52" height="27" as="geometry" />
        </mxCell>
        <mxCell id="7faKkvcica3CiBU6TqeW-34" value="" style="endArrow=none;html=1;rounded=0;entryX=0.788;entryY=0.259;entryDx=0;entryDy=0;entryPerimeter=0;exitX=0.192;exitY=0.259;exitDx=0;exitDy=0;exitPerimeter=0;" edge="1" parent="1" source="7faKkvcica3CiBU6TqeW-33" target="7faKkvcica3CiBU6TqeW-33">
          <mxGeometry width="50" height="50" relative="1" as="geometry">
            <mxPoint x="453" y="885" as="sourcePoint" />
            <mxPoint x="470" y="885" as="targetPoint" />
          </mxGeometry>
        </mxCell>
        <mxCell id="7faKkvcica3CiBU6TqeW-36" value="3.3K&lt;b&gt;Î©&lt;/b&gt;" style="verticalLabelPosition=bottom;shadow=0;dashed=0;align=center;html=1;verticalAlign=top;strokeWidth=1;shape=mxgraph.electrical.resistors.resistor_2;rounded=1;comic=0;labelBackgroundColor=none;fontFamily=Verdana;fontSize=12" vertex="1" parent="1">
          <mxGeometry x="384" y="823" width="58" height="10" as="geometry" />
        </mxCell>
        <mxCell id="7faKkvcica3CiBU6TqeW-38" value="&lt;span style=&quot;font-size: 14px;&quot;&gt;3.3V&lt;/span&gt;" style="verticalLabelPosition=top;verticalAlign=bottom;shape=mxgraph.electrical.signal_sources.vdd;shadow=0;dashed=0;align=center;strokeWidth=1;fontSize=24;html=1;flipV=1;rotation=0;" vertex="1" parent="1">
          <mxGeometry x="373" y="811" width="24" height="17" as="geometry" />
        </mxCell>
        <mxCell id="7faKkvcica3CiBU6TqeW-39" value="3.3K&lt;b&gt;Î©&lt;/b&gt;" style="verticalLabelPosition=bottom;shadow=0;dashed=0;align=center;html=1;verticalAlign=top;strokeWidth=1;shape=mxgraph.electrical.resistors.resistor_2;rounded=1;comic=0;labelBackgroundColor=none;fontFamily=Verdana;fontSize=12" vertex="1" parent="1">
          <mxGeometry x="384" y="887" width="58" height="10" as="geometry" />
        </mxCell>
        <mxCell id="7faKkvcica3CiBU6TqeW-40" value="&lt;span style=&quot;font-size: 14px;&quot;&gt;3.3V&lt;/span&gt;" style="verticalLabelPosition=top;verticalAlign=bottom;shape=mxgraph.electrical.signal_sources.vdd;shadow=0;dashed=0;align=center;strokeWidth=1;fontSize=24;html=1;flipV=1;rotation=0;" vertex="1" parent="1">
          <mxGeometry x="373" y="875" width="24" height="17" as="geometry" />
        </mxCell>
        <mxCell id="7faKkvcica3CiBU6TqeW-41" value="&lt;span style=&quot;color: rgb(0, 0, 0); font-family: Helvetica; font-size: 12px; font-style: normal; font-variant-ligatures: normal; font-variant-caps: normal; font-weight: 400; letter-spacing: normal; orphans: 2; text-align: center; text-indent: 0px; text-transform: none; widows: 2; word-spacing: 0px; -webkit-text-stroke-width: 0px; white-space: nowrap; background-color: rgb(251, 251, 251); text-decoration-thickness: initial; text-decoration-style: initial; text-decoration-color: initial; float: none; display: inline !important;&quot;&gt;P5.1 A9&lt;/span&gt;" style="text;whiteSpace=wrap;html=1;" vertex="1" parent="1">
          <mxGeometry x="563" y="406" width="82" height="28" as="geometry" />
        </mxCell>
        <mxCell id="7faKkvcica3CiBU6TqeW-42" value="&lt;span style=&quot;color: rgb(0, 0, 0); font-family: Helvetica; font-size: 12px; font-style: normal; font-variant-ligatures: normal; font-variant-caps: normal; font-weight: 400; letter-spacing: normal; orphans: 2; text-align: center; text-indent: 0px; text-transform: none; widows: 2; word-spacing: 0px; -webkit-text-stroke-width: 0px; white-space: nowrap; background-color: rgb(251, 251, 251); text-decoration-thickness: initial; text-decoration-style: initial; text-decoration-color: initial; float: none; display: inline !important;&quot;&gt;R/WR Status P2.1&amp;nbsp;&lt;/span&gt;" style="text;whiteSpace=wrap;html=1;" vertex="1" parent="1">
          <mxGeometry x="509" y="224" width="101" height="28" as="geometry" />
        </mxCell>
        <mxCell id="7faKkvcica3CiBU6TqeW-44" value="" style="verticalLabelPosition=bottom;shadow=0;dashed=0;align=center;html=1;verticalAlign=top;shape=mxgraph.electrical.opto_electronics.led_1;pointerEvents=1;" vertex="1" parent="1">
          <mxGeometry x="955" y="226" width="49" height="29" as="geometry" />
        </mxCell>
        <mxCell id="7faKkvcica3CiBU6TqeW-45" value="" style="endArrow=none;html=1;rounded=0;exitX=1;exitY=0.5;exitDx=0;exitDy=0;exitPerimeter=0;entryX=0;entryY=0.54;entryDx=0;entryDy=0;entryPerimeter=0;" edge="1" parent="1" target="7faKkvcica3CiBU6TqeW-44">
          <mxGeometry width="50" height="50" relative="1" as="geometry">
            <mxPoint x="860" y="240" as="sourcePoint" />
            <mxPoint x="1004" y="295" as="targetPoint" />
          </mxGeometry>
        </mxCell>
        <mxCell id="7faKkvcica3CiBU6TqeW-47" value="" style="endArrow=none;html=1;rounded=0;exitX=1;exitY=0.54;exitDx=0;exitDy=0;exitPerimeter=0;" edge="1" parent="1" source="7faKkvcica3CiBU6TqeW-44">
          <mxGeometry width="50" height="50" relative="1" as="geometry">
            <mxPoint x="908" y="379" as="sourcePoint" />
            <mxPoint x="1038" y="242" as="targetPoint" />
          </mxGeometry>
        </mxCell>
        <mxCell id="7faKkvcica3CiBU6TqeW-48" value="LED 2" style="text;html=1;align=center;verticalAlign=middle;resizable=0;points=[];autosize=1;strokeColor=none;fillColor=none;" vertex="1" parent="1">
          <mxGeometry x="956" y="207" width="52" height="27" as="geometry" />
        </mxCell>
        <mxCell id="7faKkvcica3CiBU6TqeW-49" value="" style="endArrow=none;html=1;rounded=0;entryX=0;entryY=0.5;entryDx=0;entryDy=0;entryPerimeter=0;exitX=1;exitY=0.5;exitDx=0;exitDy=0;" edge="1" parent="1" source="7faKkvcica3CiBU6TqeW-42">
          <mxGeometry width="50" height="50" relative="1" as="geometry">
            <mxPoint x="611" y="243" as="sourcePoint" />
            <mxPoint x="801" y="240" as="targetPoint" />
          </mxGeometry>
        </mxCell>
        <mxCell id="7faKkvcica3CiBU6TqeW-50" value="&lt;span style=&quot;color: rgb(0, 0, 0); font-family: Helvetica; font-size: 12px; font-style: normal; font-variant-ligatures: normal; font-variant-caps: normal; font-weight: 400; letter-spacing: normal; orphans: 2; text-align: center; text-indent: 0px; text-transform: none; widows: 2; word-spacing: 0px; -webkit-text-stroke-width: 0px; white-space: nowrap; background-color: rgb(251, 251, 251); text-decoration-thickness: initial; text-decoration-style: initial; text-decoration-color: initial; float: none; display: inline !important;&quot;&gt;P4.3 RDX&lt;/span&gt;" style="text;whiteSpace=wrap;html=1;" vertex="1" parent="1">
          <mxGeometry x="553" y="423" width="82" height="28" as="geometry" />
        </mxCell>
        <mxCell id="7faKkvcica3CiBU6TqeW-51" value="&lt;span style=&quot;color: rgb(0, 0, 0); font-family: Helvetica; font-size: 12px; font-style: normal; font-variant-ligatures: normal; font-variant-caps: normal; font-weight: 400; letter-spacing: normal; orphans: 2; text-align: center; text-indent: 0px; text-transform: none; widows: 2; word-spacing: 0px; -webkit-text-stroke-width: 0px; white-space: nowrap; background-color: rgb(251, 251, 251); text-decoration-thickness: initial; text-decoration-style: initial; text-decoration-color: initial; float: none; display: inline !important;&quot;&gt;P4.3 TDX&lt;/span&gt;" style="text;whiteSpace=wrap;html=1;" vertex="1" parent="1">
          <mxGeometry x="554" y="447" width="82" height="28" as="geometry" />
        </mxCell>
        <mxCell id="7faKkvcica3CiBU6TqeW-53" value="" style="shape=link;html=1;rounded=0;" edge="1" parent="1">
          <mxGeometry width="100" relative="1" as="geometry">
            <mxPoint x="693" y="453" as="sourcePoint" />
            <mxPoint x="797" y="453" as="targetPoint" />
          </mxGeometry>
        </mxCell>
        <mxCell id="7faKkvcica3CiBU6TqeW-54" value="" style="rounded=0;whiteSpace=wrap;html=1;rotation=90;" vertex="1" parent="1">
          <mxGeometry x="842" y="389" width="44" height="134" as="geometry" />
        </mxCell>
        <mxCell id="7faKkvcica3CiBU6TqeW-55" value="HP Spectre x360" style="text;html=1;align=center;verticalAlign=middle;resizable=0;points=[];autosize=1;strokeColor=none;fillColor=none;" vertex="1" parent="1">
          <mxGeometry x="809" y="441" width="110" height="27" as="geometry" />
        </mxCell>
        <mxCell id="7faKkvcica3CiBU6TqeW-56" value="Micro USB" style="text;html=1;align=center;verticalAlign=middle;resizable=0;points=[];autosize=1;strokeColor=none;fillColor=none;" vertex="1" parent="1">
          <mxGeometry x="708" y="428" width="76" height="27" as="geometry" />
        </mxCell>
        <mxCell id="7faKkvcica3CiBU6TqeW-57" value="" style="endArrow=none;html=1;rounded=0;" edge="1" parent="1">
          <mxGeometry width="50" height="50" relative="1" as="geometry">
            <mxPoint x="693" y="462" as="sourcePoint" />
            <mxPoint x="693" y="455" as="targetPoint" />
          </mxGeometry>
        </mxCell>
        <mxCell id="7faKkvcica3CiBU6TqeW-59" value="" style="endArrow=none;html=1;rounded=0;exitX=0.5;exitY=0;exitDx=0;exitDy=0;" edge="1" parent="1">
          <mxGeometry width="50" height="50" relative="1" as="geometry">
            <mxPoint x="610" y="462" as="sourcePoint" />
            <mxPoint x="693" y="462" as="targetPoint" />
          </mxGeometry>
        </mxCell>
        <mxCell id="7faKkvcica3CiBU6TqeW-60" value="" style="endArrow=none;html=1;rounded=0;exitX=0.5;exitY=0;exitDx=0;exitDy=0;" edge="1" parent="1">
          <mxGeometry width="50" height="50" relative="1" as="geometry">
            <mxPoint x="610" y="436" as="sourcePoint" />
            <mxPoint x="693" y="436" as="targetPoint" />
          </mxGeometry>
        </mxCell>
        <mxCell id="7faKkvcica3CiBU6TqeW-61" value="" style="endArrow=none;html=1;rounded=0;" edge="1" parent="1">
          <mxGeometry width="50" height="50" relative="1" as="geometry">
            <mxPoint x="693" y="451" as="sourcePoint" />
            <mxPoint x="693" y="436" as="targetPoint" />
          </mxGeometry>
        </mxCell>
        <mxCell id="7faKkvcica3CiBU6TqeW-63" value="" style="triangle;whiteSpace=wrap;html=1;rotation=-90;" vertex="1" parent="1">
          <mxGeometry x="906" y="327" width="30" height="40" as="geometry" />
        </mxCell>
        <mxCell id="7faKkvcica3CiBU6TqeW-65" value="Rotary Encoder A" style="text;html=1;align=center;verticalAlign=middle;resizable=0;points=[];autosize=1;strokeColor=none;fillColor=none;" vertex="1" parent="1">
          <mxGeometry x="867" y="306" width="113" height="27" as="geometry" />
        </mxCell>
        <mxCell id="7faKkvcica3CiBU6TqeW-67" value="&lt;span style=&quot;font-size: 14px;&quot;&gt;3.3V&lt;/span&gt;" style="verticalLabelPosition=top;verticalAlign=bottom;shape=mxgraph.electrical.signal_sources.vdd;shadow=0;dashed=0;align=center;strokeWidth=1;fontSize=24;html=1;flipV=1;rotation=0;" vertex="1" parent="1">
          <mxGeometry x="951" y="346" width="24" height="16" as="geometry" />
        </mxCell>
        <mxCell id="7faKkvcica3CiBU6TqeW-68" value="&lt;font style=&quot;font-size: 10px;&quot;&gt;C&lt;/font&gt;" style="text;html=1;align=center;verticalAlign=middle;resizable=0;points=[];autosize=1;strokeColor=none;fillColor=none;" vertex="1" parent="1">
          <mxGeometry x="918" y="342" width="26" height="27" as="geometry" />
        </mxCell>
        <mxCell id="7faKkvcica3CiBU6TqeW-69" value="" style="endArrow=none;html=1;rounded=0;entryX=0.5;entryY=0;entryDx=0;entryDy=0;entryPerimeter=0;exitX=0.897;exitY=0.732;exitDx=0;exitDy=0;exitPerimeter=0;" edge="1" parent="1" source="7faKkvcica3CiBU6TqeW-68" target="7faKkvcica3CiBU6TqeW-67">
          <mxGeometry width="50" height="50" relative="1" as="geometry">
            <mxPoint x="939" y="361" as="sourcePoint" />
            <mxPoint x="992" y="363" as="targetPoint" />
          </mxGeometry>
        </mxCell>
        <mxCell id="7faKkvcica3CiBU6TqeW-71" value="&lt;font style=&quot;font-size: 10px;&quot;&gt;A&lt;/font&gt;" style="text;html=1;align=center;verticalAlign=middle;resizable=0;points=[];autosize=1;strokeColor=none;fillColor=none;" vertex="1" parent="1">
          <mxGeometry x="908" y="342" width="26" height="27" as="geometry" />
        </mxCell>
        <mxCell id="7faKkvcica3CiBU6TqeW-72" value="&lt;font style=&quot;font-size: 10px;&quot;&gt;B&lt;/font&gt;" style="text;html=1;align=center;verticalAlign=middle;resizable=0;points=[];autosize=1;strokeColor=none;fillColor=none;" vertex="1" parent="1">
          <mxGeometry x="897" y="342" width="26" height="27" as="geometry" />
        </mxCell>
        <mxCell id="7faKkvcica3CiBU6TqeW-73" value="" style="verticalLabelPosition=bottom;shadow=0;dashed=0;align=center;html=1;verticalAlign=top;strokeWidth=1;shape=mxgraph.electrical.resistors.resistor_2;rounded=1;comic=0;labelBackgroundColor=none;fontFamily=Verdana;fontSize=12" vertex="1" parent="1">
          <mxGeometry x="898" y="369" width="22" height="5" as="geometry" />
        </mxCell>
        <mxCell id="7faKkvcica3CiBU6TqeW-74" value="" style="verticalLabelPosition=bottom;shadow=0;dashed=0;align=center;html=1;verticalAlign=top;strokeWidth=1;shape=mxgraph.electrical.resistors.resistor_2;rounded=1;comic=0;labelBackgroundColor=none;fontFamily=Verdana;fontSize=12;rotation=-90;" vertex="1" parent="1">
          <mxGeometry x="870" y="385" width="39" height="6" as="geometry" />
        </mxCell>
        <mxCell id="7faKkvcica3CiBU6TqeW-76" value="1K&lt;b style=&quot;font-family: Verdana;&quot;&gt;Î©&lt;/b&gt;" style="text;html=1;align=center;verticalAlign=middle;resizable=0;points=[];autosize=1;strokeColor=none;fillColor=none;rotation=-90;" vertex="1" parent="1">
          <mxGeometry x="857" y="375" width="44" height="28" as="geometry" />
        </mxCell>
        <mxCell id="7faKkvcica3CiBU6TqeW-77" value="&lt;font style=&quot;font-size: 11px;&quot;&gt;&lt;span style=&quot;color: rgb(0, 0, 0); font-family: Helvetica; font-style: normal; font-variant-ligatures: normal; font-variant-caps: normal; font-weight: 400; letter-spacing: normal; orphans: 2; text-align: center; text-indent: 0px; text-transform: none; widows: 2; word-spacing: 0px; -webkit-text-stroke-width: 0px; white-space: nowrap; background-color: rgb(236, 236, 236); text-decoration-thickness: initial; text-decoration-style: initial; text-decoration-color: initial; float: none; display: inline !important;&quot;&gt;10K&lt;/span&gt;&lt;b style=&quot;forced-color-adjust: none; color: rgb(0, 0, 0); font-style: normal; font-variant-ligatures: normal; font-variant-caps: normal; letter-spacing: normal; orphans: 2; text-align: center; text-indent: 0px; text-transform: none; widows: 2; word-spacing: 0px; -webkit-text-stroke-width: 0px; white-space: nowrap; background-color: rgb(236, 236, 236); text-decoration-thickness: initial; text-decoration-style: initial; text-decoration-color: initial; font-family: Verdana;&quot;&gt;Î©&lt;/b&gt;&lt;/font&gt;" style="text;whiteSpace=wrap;html=1;" vertex="1" parent="1">
          <mxGeometry x="894" y="368" width="35" height="25" as="geometry" />
        </mxCell>
        <mxCell id="7faKkvcica3CiBU6TqeW-79" value="" style="endArrow=none;html=1;rounded=0;entryX=1;entryY=0.5;entryDx=0;entryDy=0;entryPerimeter=0;exitX=0.894;exitY=0.731;exitDx=0;exitDy=0;exitPerimeter=0;" edge="1" parent="1" source="7faKkvcica3CiBU6TqeW-72" target="7faKkvcica3CiBU6TqeW-73">
          <mxGeometry width="50" height="50" relative="1" as="geometry">
            <mxPoint x="919" y="361" as="sourcePoint" />
            <mxPoint x="946" y="379" as="targetPoint" />
          </mxGeometry>
        </mxCell>
        <mxCell id="7faKkvcica3CiBU6TqeW-80" value="" style="endArrow=none;html=1;rounded=0;entryX=0.049;entryY=1.094;entryDx=0;entryDy=0;entryPerimeter=0;exitX=0.891;exitY=0.877;exitDx=0;exitDy=0;exitPerimeter=0;" edge="1" parent="1" source="7faKkvcica3CiBU6TqeW-76" target="7faKkvcica3CiBU6TqeW-72">
          <mxGeometry width="50" height="50" relative="1" as="geometry">
            <mxPoint x="851" y="408" as="sourcePoint" />
            <mxPoint x="901" y="358" as="targetPoint" />
          </mxGeometry>
        </mxCell>
        <mxCell id="7faKkvcica3CiBU6TqeW-81" value="" style="pointerEvents=1;verticalLabelPosition=bottom;shadow=0;dashed=0;align=center;html=1;verticalAlign=top;shape=mxgraph.electrical.signal_sources.signal_ground;" vertex="1" parent="1">
          <mxGeometry x="879" y="403" width="21" height="14" as="geometry" />
        </mxCell>
        <mxCell id="7faKkvcica3CiBU6TqeW-82" value="" style="endArrow=none;html=1;rounded=0;entryX=0.154;entryY=0.741;entryDx=0;entryDy=0;entryPerimeter=0;" edge="1" parent="1" target="7faKkvcica3CiBU6TqeW-72">
          <mxGeometry width="50" height="50" relative="1" as="geometry">
            <mxPoint x="889" y="362" as="sourcePoint" />
            <mxPoint x="909" y="348" as="targetPoint" />
          </mxGeometry>
        </mxCell>
        <mxCell id="7faKkvcica3CiBU6TqeW-83" value="" style="endArrow=none;html=1;rounded=0;exitX=0.965;exitY=0.874;exitDx=0;exitDy=0;exitPerimeter=0;" edge="1" parent="1" source="7faKkvcica3CiBU6TqeW-76">
          <mxGeometry width="50" height="50" relative="1" as="geometry">
            <mxPoint x="875" y="403" as="sourcePoint" />
            <mxPoint x="889" y="362" as="targetPoint" />
          </mxGeometry>
        </mxCell>
        <mxCell id="7faKkvcica3CiBU6TqeW-84" value="" style="endArrow=none;html=1;rounded=0;exitX=1;exitY=0.5;exitDx=0;exitDy=0;entryX=1.076;entryY=0.842;entryDx=0;entryDy=0;entryPerimeter=0;" edge="1" parent="1" source="IWLJOj-bWdNwNhBtovuA-123" target="7faKkvcica3CiBU6TqeW-76">
          <mxGeometry width="50" height="50" relative="1" as="geometry">
            <mxPoint x="663" y="374" as="sourcePoint" />
            <mxPoint x="756" y="356" as="targetPoint" />
          </mxGeometry>
        </mxCell>
        <mxCell id="7faKkvcica3CiBU6TqeW-85" value="" style="triangle;whiteSpace=wrap;html=1;rotation=-90;" vertex="1" parent="1">
          <mxGeometry x="1019" y="330" width="30" height="40" as="geometry" />
        </mxCell>
        <mxCell id="7faKkvcica3CiBU6TqeW-86" value="Rotary Encoder B" style="text;html=1;align=center;verticalAlign=middle;resizable=0;points=[];autosize=1;strokeColor=none;fillColor=none;" vertex="1" parent="1">
          <mxGeometry x="980" y="309" width="114" height="27" as="geometry" />
        </mxCell>
        <mxCell id="7faKkvcica3CiBU6TqeW-87" value="&lt;span style=&quot;font-size: 14px;&quot;&gt;3.3V&lt;/span&gt;" style="verticalLabelPosition=top;verticalAlign=bottom;shape=mxgraph.electrical.signal_sources.vdd;shadow=0;dashed=0;align=center;strokeWidth=1;fontSize=24;html=1;flipV=1;rotation=0;" vertex="1" parent="1">
          <mxGeometry x="1064" y="349" width="24" height="16" as="geometry" />
        </mxCell>
        <mxCell id="7faKkvcica3CiBU6TqeW-88" value="&lt;font style=&quot;font-size: 10px;&quot;&gt;C&lt;/font&gt;" style="text;html=1;align=center;verticalAlign=middle;resizable=0;points=[];autosize=1;strokeColor=none;fillColor=none;" vertex="1" parent="1">
          <mxGeometry x="1031" y="345" width="26" height="27" as="geometry" />
        </mxCell>
        <mxCell id="7faKkvcica3CiBU6TqeW-89" value="" style="endArrow=none;html=1;rounded=0;entryX=0.5;entryY=0;entryDx=0;entryDy=0;entryPerimeter=0;exitX=0.897;exitY=0.732;exitDx=0;exitDy=0;exitPerimeter=0;" edge="1" parent="1" source="7faKkvcica3CiBU6TqeW-88" target="7faKkvcica3CiBU6TqeW-87">
          <mxGeometry width="50" height="50" relative="1" as="geometry">
            <mxPoint x="1052" y="364" as="sourcePoint" />
            <mxPoint x="1105" y="366" as="targetPoint" />
          </mxGeometry>
        </mxCell>
        <mxCell id="7faKkvcica3CiBU6TqeW-90" value="&lt;font style=&quot;font-size: 10px;&quot;&gt;A&lt;/font&gt;" style="text;html=1;align=center;verticalAlign=middle;resizable=0;points=[];autosize=1;strokeColor=none;fillColor=none;" vertex="1" parent="1">
          <mxGeometry x="1021" y="345" width="26" height="27" as="geometry" />
        </mxCell>
        <mxCell id="7faKkvcica3CiBU6TqeW-91" value="&lt;font style=&quot;font-size: 10px;&quot;&gt;B&lt;/font&gt;" style="text;html=1;align=center;verticalAlign=middle;resizable=0;points=[];autosize=1;strokeColor=none;fillColor=none;" vertex="1" parent="1">
          <mxGeometry x="1010" y="345" width="26" height="27" as="geometry" />
        </mxCell>
        <mxCell id="7faKkvcica3CiBU6TqeW-92" value="" style="verticalLabelPosition=bottom;shadow=0;dashed=0;align=center;html=1;verticalAlign=top;strokeWidth=1;shape=mxgraph.electrical.resistors.resistor_2;rounded=1;comic=0;labelBackgroundColor=none;fontFamily=Verdana;fontSize=12" vertex="1" parent="1">
          <mxGeometry x="1011" y="372" width="22" height="5" as="geometry" />
        </mxCell>
        <mxCell id="7faKkvcica3CiBU6TqeW-93" value="" style="verticalLabelPosition=bottom;shadow=0;dashed=0;align=center;html=1;verticalAlign=top;strokeWidth=1;shape=mxgraph.electrical.resistors.resistor_2;rounded=1;comic=0;labelBackgroundColor=none;fontFamily=Verdana;fontSize=12;rotation=-90;" vertex="1" parent="1">
          <mxGeometry x="983" y="388" width="39" height="6" as="geometry" />
        </mxCell>
        <mxCell id="7faKkvcica3CiBU6TqeW-94" value="1K&lt;b style=&quot;font-family: Verdana;&quot;&gt;Î©&lt;/b&gt;" style="text;html=1;align=center;verticalAlign=middle;resizable=0;points=[];autosize=1;strokeColor=none;fillColor=none;rotation=-90;" vertex="1" parent="1">
          <mxGeometry x="970" y="378" width="44" height="28" as="geometry" />
        </mxCell>
        <mxCell id="7faKkvcica3CiBU6TqeW-95" value="&lt;font style=&quot;font-size: 11px;&quot;&gt;&lt;span style=&quot;color: rgb(0, 0, 0); font-family: Helvetica; font-style: normal; font-variant-ligatures: normal; font-variant-caps: normal; font-weight: 400; letter-spacing: normal; orphans: 2; text-align: center; text-indent: 0px; text-transform: none; widows: 2; word-spacing: 0px; -webkit-text-stroke-width: 0px; white-space: nowrap; background-color: rgb(236, 236, 236); text-decoration-thickness: initial; text-decoration-style: initial; text-decoration-color: initial; float: none; display: inline !important;&quot;&gt;10K&lt;/span&gt;&lt;b style=&quot;forced-color-adjust: none; color: rgb(0, 0, 0); font-style: normal; font-variant-ligatures: normal; font-variant-caps: normal; letter-spacing: normal; orphans: 2; text-align: center; text-indent: 0px; text-transform: none; widows: 2; word-spacing: 0px; -webkit-text-stroke-width: 0px; white-space: nowrap; background-color: rgb(236, 236, 236); text-decoration-thickness: initial; text-decoration-style: initial; text-decoration-color: initial; font-family: Verdana;&quot;&gt;Î©&lt;/b&gt;&lt;/font&gt;" style="text;whiteSpace=wrap;html=1;" vertex="1" parent="1">
          <mxGeometry x="1007" y="371" width="35" height="25" as="geometry" />
        </mxCell>
        <mxCell id="7faKkvcica3CiBU6TqeW-96" value="" style="endArrow=none;html=1;rounded=0;entryX=1;entryY=0.5;entryDx=0;entryDy=0;entryPerimeter=0;exitX=0.894;exitY=0.731;exitDx=0;exitDy=0;exitPerimeter=0;" edge="1" parent="1" source="7faKkvcica3CiBU6TqeW-91" target="7faKkvcica3CiBU6TqeW-92">
          <mxGeometry width="50" height="50" relative="1" as="geometry">
            <mxPoint x="1032" y="364" as="sourcePoint" />
            <mxPoint x="1059" y="382" as="targetPoint" />
          </mxGeometry>
        </mxCell>
        <mxCell id="7faKkvcica3CiBU6TqeW-97" value="" style="endArrow=none;html=1;rounded=0;entryX=0.049;entryY=1.094;entryDx=0;entryDy=0;entryPerimeter=0;exitX=0.891;exitY=0.877;exitDx=0;exitDy=0;exitPerimeter=0;" edge="1" parent="1" source="7faKkvcica3CiBU6TqeW-94" target="7faKkvcica3CiBU6TqeW-91">
          <mxGeometry width="50" height="50" relative="1" as="geometry">
            <mxPoint x="964" y="411" as="sourcePoint" />
            <mxPoint x="1014" y="361" as="targetPoint" />
          </mxGeometry>
        </mxCell>
        <mxCell id="7faKkvcica3CiBU6TqeW-98" value="" style="pointerEvents=1;verticalLabelPosition=bottom;shadow=0;dashed=0;align=center;html=1;verticalAlign=top;shape=mxgraph.electrical.signal_sources.signal_ground;" vertex="1" parent="1">
          <mxGeometry x="992" y="410" width="21" height="14" as="geometry" />
        </mxCell>
        <mxCell id="7faKkvcica3CiBU6TqeW-99" value="" style="endArrow=none;html=1;rounded=0;entryX=0.154;entryY=0.741;entryDx=0;entryDy=0;entryPerimeter=0;" edge="1" parent="1" target="7faKkvcica3CiBU6TqeW-91">
          <mxGeometry width="50" height="50" relative="1" as="geometry">
            <mxPoint x="1002" y="365" as="sourcePoint" />
            <mxPoint x="1022" y="351" as="targetPoint" />
          </mxGeometry>
        </mxCell>
        <mxCell id="7faKkvcica3CiBU6TqeW-100" value="" style="endArrow=none;html=1;rounded=0;exitX=0.965;exitY=0.874;exitDx=0;exitDy=0;exitPerimeter=0;" edge="1" parent="1" source="7faKkvcica3CiBU6TqeW-94">
          <mxGeometry width="50" height="50" relative="1" as="geometry">
            <mxPoint x="988" y="406" as="sourcePoint" />
            <mxPoint x="1002" y="365" as="targetPoint" />
          </mxGeometry>
        </mxCell>
        <mxCell id="7faKkvcica3CiBU6TqeW-101" value="" style="endArrow=none;html=1;rounded=0;exitX=0.704;exitY=-0.09;exitDx=0;exitDy=0;exitPerimeter=0;" edge="1" parent="1" source="7faKkvcica3CiBU6TqeW-50">
          <mxGeometry width="50" height="50" relative="1" as="geometry">
            <mxPoint x="609" y="397" as="sourcePoint" />
            <mxPoint x="978" y="421" as="targetPoint" />
          </mxGeometry>
        </mxCell>
        <mxCell id="7faKkvcica3CiBU6TqeW-102" value="" style="endArrow=none;html=1;rounded=0;" edge="1" parent="1">
          <mxGeometry width="50" height="50" relative="1" as="geometry">
            <mxPoint x="977" y="422" as="sourcePoint" />
            <mxPoint x="977" y="365" as="targetPoint" />
          </mxGeometry>
        </mxCell>
        <mxCell id="7faKkvcica3CiBU6TqeW-103" value="" style="endArrow=none;html=1;rounded=0;" edge="1" parent="1">
          <mxGeometry width="50" height="50" relative="1" as="geometry">
            <mxPoint x="977" y="365" as="sourcePoint" />
            <mxPoint x="1003" y="365" as="targetPoint" />
          </mxGeometry>
        </mxCell>
      </root>
    </mxGraphModel>
  </diagram>
</mxfile>
